<?xml version="1.0" encoding="UTF-8" standalone="no"?>
<svg
   xmlns:stEvt="http://ns.adobe.com/xap/1.0/sType/ResourceEvent#"
   xmlns:stRef="http://ns.adobe.com/xap/1.0/sType/ResourceRef#"
   xmlns:xmpMM="http://ns.adobe.com/xap/1.0/mm/"
   xmlns:xmpG="http://ns.adobe.com/xap/1.0/g/"
   xmlns:stFnt="http://ns.adobe.com/xap/1.0/sType/Font#"
   xmlns:stDim="http://ns.adobe.com/xap/1.0/sType/Dimensions#"
   xmlns:xmpTPg="http://ns.adobe.com/xap/1.0/t/pg/"
   xmlns:xmpGImg="http://ns.adobe.com/xap/1.0/g/img/"
   xmlns:xmp="http://ns.adobe.com/xap/1.0/"
   xmlns:x="adobe:ns:meta/"
   xmlns:dc="http://purl.org/dc/elements/1.1/"
   xmlns:cc="http://creativecommons.org/ns#"
   xmlns:rdf="http://www.w3.org/1999/02/22-rdf-syntax-ns#"
   xmlns:svg="http://www.w3.org/2000/svg"
   xmlns="http://www.w3.org/2000/svg"
   xmlns:sodipodi="http://sodipodi.sourceforge.net/DTD/sodipodi-0.dtd"
   xmlns:inkscape="http://www.inkscape.org/namespaces/inkscape"
   inkscape:version="1.0 (4035a4fb49, 2020-05-01)"
   sodipodi:docname="World_Chess_Champions_timeline.svg"
   xml:space="preserve"
   enable-background="new 0 0 610 532.5"
   viewBox="0 0 650 532.5"
   height="532.5"
   width="650"
   y="0px"
   x="0px"
   id="Layer_1"
   version="1.1"><defs
   id="defs355">
				
				
				
				
			</defs><sodipodi:namedview
   inkscape:current-layer="g114"
   inkscape:window-maximized="1"
   inkscape:window-y="-8"
   inkscape:window-x="-8"
   inkscape:cy="272.7918"
   inkscape:cx="81.71318"
   inkscape:zoom="1.0320754"
   showgrid="false"
   id="namedview353"
   inkscape:window-height="1017"
   inkscape:window-width="1920"
   inkscape:pageshadow="2"
   inkscape:pageopacity="0"
   guidetolerance="10"
   gridtolerance="10"
   objecttolerance="10"
   borderopacity="1"
   bordercolor="#666666"
   pagecolor="#ffffff" />
<metadata
   id="metadata2"><?xpacket begin="﻿" id="W5M0MpCehiHzreSzNTczkc9d"?>
<x:xmpmeta
   x:xmptk="Adobe XMP Core 5.5-c014 79.151739, 2013/04/03-12:12:15        ">
   
<metadata><rdf:RDF>
      <rdf:Description
   rdf:about="">
         <xmp:CreatorTool>Adobe Illustrator CC (Macintosh)</xmp:CreatorTool>
         <xmp:CreateDate>2013-11-27T11:17:41+01:00</xmp:CreateDate>
         <xmp:MetadataDate>2013-11-27T11:17:41+01:00</xmp:MetadataDate>
         <xmp:ModifyDate>2013-11-27T11:17:41+01:00</xmp:ModifyDate>
         <xmp:Thumbnails>
            <rdf:Alt>
               <rdf:li
   rdf:parseType="Resource">
                  <xmpGImg:width>256</xmpGImg:width>
                  <xmpGImg:height>232</xmpGImg:height>
                  <xmpGImg:format>JPEG</xmpGImg:format>
                  <xmpGImg:image>/9j/4AAQSkZJRgABAgEASABIAAD/7QAsUGhvdG9zaG9wIDMuMAA4QklNA+0AAAAAABAASAAAAAEA
AQBIAAAAAQAB/+4ADkFkb2JlAGTAAAAAAf/bAIQABgQEBAUEBgUFBgkGBQYJCwgGBggLDAoKCwoK
DBAMDAwMDAwQDA4PEA8ODBMTFBQTExwbGxscHx8fHx8fHx8fHwEHBwcNDA0YEBAYGhURFRofHx8f
Hx8fHx8fHx8fHx8fHx8fHx8fHx8fHx8fHx8fHx8fHx8fHx8fHx8fHx8fHx8f/8AAEQgA6AEAAwER
AAIRAQMRAf/EAaIAAAAHAQEBAQEAAAAAAAAAAAQFAwIGAQAHCAkKCwEAAgIDAQEBAQEAAAAAAAAA
AQACAwQFBgcICQoLEAACAQMDAgQCBgcDBAIGAnMBAgMRBAAFIRIxQVEGE2EicYEUMpGhBxWxQiPB
UtHhMxZi8CRygvElQzRTkqKyY3PCNUQnk6OzNhdUZHTD0uIIJoMJChgZhJRFRqS0VtNVKBry4/PE
1OT0ZXWFlaW1xdXl9WZ2hpamtsbW5vY3R1dnd4eXp7fH1+f3OEhYaHiImKi4yNjo+Ck5SVlpeYmZ
qbnJ2en5KjpKWmp6ipqqusra6voRAAICAQIDBQUEBQYECAMDbQEAAhEDBCESMUEFURNhIgZxgZEy
obHwFMHR4SNCFVJicvEzJDRDghaSUyWiY7LCB3PSNeJEgxdUkwgJChgZJjZFGidkdFU38qOzwygp
0+PzhJSktMTU5PRldYWVpbXF1eX1RlZmdoaWprbG1ub2R1dnd4eXp7fH1+f3OEhYaHiImKi4yNjo
+DlJWWl5iZmpucnZ6fkqOkpaanqKmqq6ytrq+v/aAAwDAQACEQMRAD8A9U4qk3m3y+uvaStnUCSO
4t7mIszqoa3mWT4gn2tlNAaitD2xV5R/yojzJ+k47pdQt0RdUbUmdZXEnqm4Sb6yP3H2uKcfTrz/
AOLyPhKrNPI/5eXWi+TNU8v6j9XUaj8Po2TyrCqixgs2YNSJw0z27TPxH2nO7GrMqwy6/IrzDJO8
y3VnM/6OsbNVkkIRmtY7CNo3jktbhDHysZHHMODzoERuTlVln5Z/ltqvlLULie9uobrnapbNeRlz
cXbhy/q3QZVAMQPpRjk3weHTFWO69+Rmr3wigsNRisoln1OQXXJpJ4Y72d5ovTMsUrlyH4SMsqGl
alxtiqZ+Vvyq1bS/NWm61KmnWsNtLLO1vZtKTbpIL9fqNvyjjBt2OoJK32Pjj+wfhKqt/mB+Umo+
YbnWrjTriGGTVWs3UzuzBJILa7tXkKyRXKfCt2rRqFHxLUFGo2Kr9c/Ka9utQe4s5YHSbVDqBe6k
laSFpILJGu4/hetzG9i4jFVULJQFaccVTfz9+X83mO/ivraRI5o9NvdPYSuwDG4eGSMcSk0QWsLB
yY2qCAVYbYqwyz/JbzDDw+swaTe/V4bdYkeWSNLnjdQXM1tdqlrxaBRbiKAIAiAV9IliAqzefyFP
L5T8p6PLcie88tzaXM127SASNp/BZXov2mkRWpy7nFWAwfkN5jj06OzF5ZRTLcySw3yE+vaxmzht
D6ZS3h9RrgQlpT8DciCWkoeSrNbH8vLgflprHlW4S1tZdVS89O0s2kFlbNc19OOJgsTmNWozfAK1
Ox7qsa81fkv5n1jU/MtxZazBp9trNCIWUym4+L1Aty0aW8qLE4Xh+9l2qtAhKlVlvkTyRf6Bqeu3
V29v6epuBGLUuGlIubqc3M/JVKzut2sbUZto1+LsFWH61+SGrXc9klpc26WNtZXFnNE8jcnjk+vK
lurGCSREkS/HqOJP2BVHNCFU58jfllrOheZINUvJLMpDBLGJraon4SJFHHZECGJDBCIfU5iheQlu
C74qp+bPyl1DVLqeXTrqO3+s63+ljLJIzvEHtbWF5EWaK4BlV7UmMKU4qaK6ioxVKPLv5KeYNLud
Lee4sp/qN5FcNdVJuE9KSylluIyIEDTXhs5ElDGqpJT1HpQqss8+fl7ca9PdXlk0f1m4tYIClxI3
ps1tew3SKyvFdRCOkbBl9JgSdx3xVi1z+RUx0VI+Om3uqx2tnp7NcR+lFPDb2EltI87pG7NIbmcz
j4TX04wSKVCrOvMfks6vHolZ2a40j6wrXDySRs63Onz2bMAhp6heZW5EVUVod91XmEH5A+aBLDLJ
qNn+7t7iNIVIEcPrRXcbQKsVrCHim+tJzKiOlD8LniQq9Ch8gzP+Xh8tXPoRXHqTXEMVu8i2sDSX
T3MUMZVYi0UAcItUFQo+HFWE6t+RnmK81bU7uG/toor3UFubcMwZ4kMt1K9zvanlcD64AlTzUIKT
gbYqyjyt+Xmr6H5P13SPT0+e61FBHDC5kNrO6Wsds1zecUjf1Lkx85lUHw5HrirGI/yQ12P0GCaa
xj9GWaKWaVhMIrmKZ9PJjtoUWznMTSFfTKozcBGVG6rJPy4/LLU/Kuri7upraVUsEtHuYS/r3D+n
aoFlDIoEdt9VZYfiY8X/AGabqpLZfk9ry6paahNFplrImoi8nW1lm4RIt1Zz87VRBC6zPDYmCRmk
Jf1GYvT92VU30z8rLzTvMuk38D2xsdOmneNnaVriCJrm/mSOAspLeumoIsxaT/dQ2bqFU7f82fIK
TiCTUjFI9xHawGeCe3jmeSf6tW3lnSOOdFl2Z4mZR3OKo2T8x/IKDk3mHT/QAmaS6FzGbeP6s8Mc
qyzg+lGyvdRLxdgSWFBiqX3/AOZ/5awajBb3vmGzh9eIyQTyzrFasnCOUOtw5WF+SToRxY1riqbX
WueXYvLc3mO3lTUNJhge5W4spFmWSNK1MTh+DdP5sjOQiCT0cjSaaWfLHHGuKZoXy3eeyfn/AOQi
8ZWw1MBWq49OHccSKf3/AIkZh/yhDuP4+L1f+gbWfzsXzl/xDIfJv5o+UvNurnS9Os7yK4WJpy1w
sapxQgEVSWQ1+Lwy3Dqo5DQt1vans1qNFi8TJKBjdekm/tiGY3drAtuxVaEU3BPiPfMl55W+p238
n4n+uKu+p238n4n+uKqNnawNaQMy1YxqSSTUkqPfFVb6nbfyfif64qo29rAfVqtaSMBUnp9+Kq31
O2/k/E/1xVRW1g+tyLx+ERxkCppUs9e/tiqt9Ttv5PxP9cVUWtYPrca8fhMchIqaVDJTv74qrfU7
b+T8T/XFVG6tYFiUqtD6kYqCehkUHviqt9Ttv5PxP9cVUby1gW0nZVowjYggmoIU++Kq31O2/k/E
/wBcVd9Ttv5PxP8AXFVG1tYGiYstT6kgqSegkYDviqt9Ttv5PxP9cVUYLWAy3AK1CyAKKnYemp8f
fFVb6nbfyfif64qotawfW414/CY5CRU0qGSnf3xVW+p238n4n+uKqM9rAJbcBaBpCGFTuPTY+Pti
qt9Ttv5PxP8AXFVG8tYFtJ2VaMI2IIJqCFPviqt9Ttv5PxP9cVebz/k/q09zNLJr8ESNLFMkVrp5
tlleO8juvVvEiuViln4xtGssSRU5sxDdMVQWhfkEmmzafJLrC3B0/wCrRqzRXcjyw2d3Y3UKyfWr
67RSBp/D9yqJ8eyAKFKrc35H6xDzk0XzOunXMkcsDzGxdyIJ1jWRI/TuoGRiIac1aoBNKNRgqy/V
PLepL+W115et0tpr1bB7S2isofqduaKViSOKWaf0wFoPilPzyvNEmBA7nYdlZ4YtVjnM1GMwS8B/
5Un+Z3/Vm/6ebT/qrmm/J5e77n1X/RX2d/qn+xn/AMSzj8oPy983eWPNjalrtitlZNayQiZp7dwZ
GZCFokjHop7ZlaTBOE7kKFPPe03bWl1em8PDLjnxA1wy5b94eyXl9Y/V3/0iLt+2viPfNlxB8/8A
Bn3H5K31+x/5aIv+DX+uPEF8Gfcfk76/Y/8ALRF/wa/1x4gvgz7j8lGyvrH6nB/pEX92n7a/yj3x
4gvgz7j8lb6/Y/8ALRF/wa/1x4gvgz7j8mrKWORZWjdXX1WFVII7eGG2EokcwiMUKKf72y/8Y4/+
JPiqtiqi/wDvbF/xjk/4kmKq2KqN3/dL/wAZIv8Ak4uKq2KqN9/vFcf8Y3/4icVVsVdiqjaf3Tf8
ZJf+TjYqrYqo2/8Ae3P/ABkH/JtMVVsVUX/3ti/4xyf8STFVbFVG4/vbb/jIf+Tb4qrYqo33+8Vx
/wAY3/4icVVsVdirsVeG6r538+xflZoEGgWnmI+b7XTIU1CSTTbkFr6G0Tkly17p9203OXl8UfEM
wo0q8gSqgL3zP+dD3ETpa60RZa1zvJ1tAo/Rr/WFlhgtls41keGJEZSz3KMxXjIX+EKp55c1X849
S8z29rqlzc6dpz6o6X6xWdTFBFFeSKkc1xp0Nv8AV5WigTms07VP94pYDFUx/wCcjf8AlCLH/tpx
f9Q8+YPaH0D3/rez9hv8cl/wo/7qD5yzTvqjsVdirsVdir6T/wCcef8AlA5f+Y+b/k3Hm50H938X
yf21/wAdH9SP3l6dma8gop/vbL/xjj/4k+Kq2KqL/wC9sX/GOT/iSYqrYqo3f90v/GSL/k4uKq2K
qN9/vFcf8Y3/AOInFVbFXYqo2n903/GSX/k42Kq2KqNv/e3P/GQf8m0xVWxVRf8A3ti/4xyf8STF
VbFVG4/vbb/jIf8Ak2+Kq2KqN9/vFcf8Y3/4icVVsVdirsVdirsVQWuava6Nouoaxecvqmm2013c
cBVvTgjMj8R3PFcVYXr3nO603y7can568qwR2NuYZYY4b6wu429SORmqb86cqzRBKMq8q8hwL/FQ
SiDzbcWeeM3CRifI0ksX5i/lnLFPOnlMrbRic29zPBpVtDcfVZIkn9OW4uYUT0/XRv3pSo+zUgjI
eFDuDkfylqf9Un/ppfrS21/Nj8v7tJZrfyWps5Lm0tdNvnhtBBNLd2UN96MhXm8cqRSyGiq6EJ9v
4gMfCh3Bf5S1P+qT/wBNL9aMn/M/8sY5762j8ovdXens/wBagtIdIuSsUcEty0peG6eIKIrdzxL+
p0HCpFXwodwX+UtT/qk/9NL9aNvfPH5d2mkXusN5Qf8ARdnIyR3sltpltDcKjyxSNBJd3FupKPbs
DGxWQ7FUKmuPhQ7gv8pan/VJ/wCml+tm+n6D5Ov7C2vrfR7IwXcSTwk2sIPCRQy1HHwOPhQ7gv8A
KWp/1Sf+ml+t5f8AmL+ZmueSvM0miaBaWFvp6xRzCP0KfHIPiPwMg7eGYOo1MscuGIFPadh9gYe0
NOM2eWSU7I+roPeCx21/5yB89y3MUbR2PF3VTSF60Jp/vzKRr8l9Ha5PYvRCJNz5d4/U+iU/3tl/
4xx/8SfNw+Uq2KqL/wC9sX/GOT/iSYqrYqo3f90v/GSL/k4uKq2KqN9/vFcf8Y3/AOInFVbFXYqo
2n903/GSX/k42Kq2KqNv/e3P/GQf8m0xVWxVRf8A3ti/4xyf8STFVbFVG4/vbb/jIf8Ak2+Kq2Kq
N9/vFcf8Y3/4icVVsVdirsVdirsVU7i3gubeW3uI1lgmRo5YnFVZGFGUg9QQcVYe35O/l88YSSwu
JGUrxmkv795ljSKSFYFmacyCD0ppE9EN6dGPw74qgNJ/I3yTZx3K3UU108l1LcWcq3V7A1rG8qyp
HAyXFYyvpoHkQq0nEcq4qjbT8mPy2tJTJBpLLXgfTN3ePEGiRIkdYmmMauI4VTkF5caitCaqoe3/
AC8/KPRpbq2CRW80NksV1DcajcO8VjIk1rGCJp2McXCWSNDsB0X7IoqrXn5U/lks0SXNo0Mt7Owt
Yvr95DylMU7ywwIs60WSKWdpIoxxcFiynfFWT6dc6DaWFjaWV1Atmrfo+wUTBw0lsrI0CMWYvJGI
HDCpb4Wr0OKsI89/kxbebNffWJNVe0Z40i9FYQ4+AUryLr1+WYefRjJK7es7I9qZaLB4QxiW5N3X
P4MdP/OOum2QN5Lr0vp2375/9GH2Y/iPST2yn+TwN+J2g9t8mT0DELlt9Xf8GTL+eP5ci5kk+vy8
WRFB+rzdVLE/s/5WX/ncfe6X/Qh2h/MH+mj+tNdB/NfyTr2rQaTpl5JLe3PP0o2hlQH00aRviZQB
8KnJw1UJGgd3G1ns5rNNiOXJECEefqHU1+lBal+cfkKw1mazur2RJ7Jpra4UQSkCRHVWAIXfdDuM
EtXjBolswey2uywjOMRwyAI9Q5Hfvaj/ADx/LmSRY1v5SzkKo+rzdSaD9nB+dx97ZL2S14FmA/00
f1s3u/7pf+MkX/JxcynmlbFVG+/3iuP+Mb/8ROKq2KuxVRtP7pv+Mkv/ACcbFVbFVG3/AL25/wCM
g/5Npiqtiqi/+9sX/GOT/iSYqrYqo3H97bf8ZD/ybfFVbFVG+/3iuP8AjG//ABE4qrYq7FXYq7FX
Yq7FXYq7FXYq8i1/8n/NOo63qnmKHV4jqesS3Npd2UppaJpdFFosbLB63rKbWB3DMUBaTjueTKsc
uP8AnHzzfJprW41C2e6j1SPUmlmnQwXn1e3vVU3EMOn27B7iS7RLj1JJy0XIcjxUFVMNV/IbWbmO
4eyOnWt1f/pd9SdXmX1pL8aklsXdYav6Saii1I+EBgvQVVRbfkhqlv5t06/0+S3ttC0+8aey0+2l
itjZx/Whc8rcSWF4QZN1ljikh5AcS5DGir1nWY5JdIvoo1LyPbyqiDclihAAyM+Rb9LIDLEnkJD7
3yb/AMq48+/9WC+/5EP/AEzQ/l8n80vtf8uaL/VYf6YMw/KTyV5u038wtKvdQ0i7tbSL6x6s8sTK
i8raVVqSO7MBmRpcMxkBIP4Do/aXtXS5dDkhDJCUjw7A7/VFJvOXkPznc+cdbnt9FvJYbi/u5YJE
hcq8bTsQykDcEMMrzYJmZIB5lzuy+2dJDS4oyywEhjgCLHPhCXWf5dee1vIGbQb4KsiEkwPQAMPb
IDT5L5Fy8vbeiMT+9hy/nB9ZXf8AdL/xki/5OLm/fEFbFVG+/wB4rj/jG/8AxE4qrYq7FVG0/um/
4yS/8nGxVWxVRt/725/4yD/k2mKq2KqL/wC9sX/GOT/iSYqrYqo3H97bf8ZD/wAm3xVWxVRvv94r
j/jG/wDxE4qrYq7FXYq7FXYq7FXYq7FXYq7FXYq7FWN/mRq2oaP5C17VNOnFrfWdlLNbXJ4ERuq1
DH1FkTb/AClI9sVeb2f5taho9rFHdeYdL12S8W5NtdR31tqKG5jnsY4rVJrK00hORiuZZDGYi+3L
lxqAqlcP/OQXnWaC8P6JtYHtYoJpZDGxjhVriHT7hpGnurSPjHeC5oWlReKAMy7virKvPHmPVdT/
ACRj1qcpa390Ld5Gspo5I/78Lyjlt5biPi4HKiytStORzF1hrGXpPZOEZa+AkLFS/wByWX/l/JLL
5S8uyys0kjacpd2JJJIj3JOWYD6B7nX9txA1mUDYccvvZPlzq1G7/ul/4yRf8nFxVWxVRvv94rj/
AIxv/wAROKq2KuxVRtP7pv8AjJL/AMnGxVWxVRt/725/4yD/AJNpiqtiqi/+9sX/ABjk/wCJJiqt
iqjcf3tt/wAZD/ybfFVbFVG+/wB4rj/jG/8AxE4qrYq7FXYq7FXYq7FXYq7FXYq7FXYq7FXYql/m
HW7XQdA1PXLxJJLTSrSe9uEhAMjR28bSuEDFVLFV2qR88VYfpf55eQrywe8nuJLJEne3Zf3V+AIo
4pJJmm0uS/gWFBcIHlaQKhNGIOKqN7+Z35da75Ta51SGaW1ll4HSLi3ljuGZfVkjPpyrFsUtnfkT
x2pWu2RlASFFv02pyYJieM8Mh1VrX84Pyq06wS2tr6WG1tF4RQJp+oEiJElb1EUQFmhVbWUmQfAO
Db7HDEACgwy5ZZJGcjcpbkpjon5p+VdX8zP5bt2nTVAsskKPHySWOC6urSSRWiMnFFksm+J+I+OM
fabiC1sc/NX82NQ8pa7b6VbWEN1HLbRXZkkZlYN6zjjQdv3WYWp1RxyoDo9h7P8As1j12A5JTMSJ
mO3uB/SxP/oZPXP+rNbf8jJMx/5Rl3O8/wBAmH/VJfIJpN+eerS+S31g6ZAJXvjp5i5vx4mD1Ode
ta7ZZ+dPBxV1pwf9B+L814PiSrw+K6H86mT6V+Z1/e/mLH5UayiS3e3jnNyGbnV7NLmlOnV6ZdHU
k5OCvxVup1HYEMegOpEjxcRFdNpmP6HoeZby6jaf3Tf8ZJf+TjYqrYqo2/8Ae3P/ABkH/JtMVVsV
UX/3ti/4xyf8STFVbFVG4/vbb/jIf+Tb4qrYqo33+8Vx/wAY3/4icVVsVdirsVdirsVdirsVdirs
VdirsVdirsVS/wAw6Ja69oGp6HePJHaaraT2Vw8JAkWO4jaJyhYMoYK21QflirD7/wDJrSdRe5nv
9c1a4vr9JbbU73nZxSXVnOkUctpKsNtHCImW3TeNFk/y8VXN+S3ld5fVmu76WQWctgjM8A4wyXLX
KmiwqC8RldEY1+BmrU74qv8A+VN+WPVEn1q95Lpp0gD1IqegVu15f3X2/wDcjJv02XbrVVdpH5Pe
WdK8z23mW0ub0anbeoqMzwlWinnu7iWFh6VeDyX5Joa/u499jyVSn80Pyj1Hzjr9vqdtfw2scNol
sY5EZiSskj8qr2/eZhanSnJKwej2Hs/7S49DgOOUDImZlt7gP0MQ/wChbNc/6vNt/wAi5Mx/5Ol3
u8/0d4f9Tl8wipvygli0B/KJ1u1OrJOdaMfB6/VhH9XrT/XyX5T08Fi+f6HH/wBFA8b834UvC4fD
5j6r4vuZjpX5Y39l+Ysfmtr2J7dLeOA2wVudUs0tq16dUrmRHTEZOO/xVOj1Hb8MmgOmETxcRN9N
5mX6XoeZby6jaf3Tf8ZJf+TjYqrYqo2/97c/8ZB/ybTFVbFVF/8Ae2L/AIxyf8STFVbFVG4/vbb/
AIyH/k2+Kq2KqN9/vFcf8Y3/AOInFVbFXYq7FXYq7FXYq7FXYq7FXYq7FXYq7FXYq7FUj876bNqf
lLVNPitZL17qAxG0imS3kkViAypJKrxhuNaBxxbo2xOKvKNO/L3z2F9Kzs77QNLiuEazsbK+j0+s
ct9afWHntrC6a0R/qouaLCeFKMFErYqgTon5qXN1rOg2esX9xJptlZ3UlvFqDG6iu5pY4BbNP68X
KtjaNMUM6Fmk5epGzc8VRUHlH83hNNdGzvLW4vGieAWWphEhu47PT4Eub31LmSW4iVbeZHjeSY17
PUSYq9I/LjS/OFjZ6gvmieSa4S4Frp5km9bnZWkawxXDEM37y4YPK9fi3AbcYqhbq0uZPzelkWJj
E/llolloeHqG9rx5dK07ZjV++/zf0vQcY/knhvf8zdf8k2c5kvPuxVRtP7pv+Mkv/JxsVVsVUbf+
9uf+Mg/5Npiqtiqi/wDvbF/xjk/4kmKq2KqNx/e23/GQ/wDJt8VVsVUb7/eK4/4xv/xE4qrYq7FX
Yq7FXYq7FXYq7FXYq7FXYq7FXYq7FXYq7FXYq7FXYq8i1/8AM/zp5Wuddk1STSNVttHk9OKwgtr+
xuZl+qJeNIjxtq9fTV+LBolX9ppEG2Ks+8i+YrjzF5cTVp41ieS6voURAVAjtr2a3jqCz/EY4lLb
0rWm2KoD8rNV1HVPJ8N5qE7XNy1xcoZX6lUnZVH0AUzH00jKFl3ntDp8eHVGGMcMeGO3viGXZkOj
UbT+6b/jJL/ycbFVbFVG3/vbn/jIP+TaYqrYqov/AL2xf8Y5P+JJiqtiqjcf3tt/xkP/ACbfFVbF
VG+/3iuP+Mb/APETiqtirsVdirsVdirsVdirsVdirsVdirsVdirsVdirsVU7mdLe3lncEpCjSMB1
ooqaVxVg9l+cvlp4o31Sy1HRnuLaC9soLiBLqa4trlJXSWKPTZL5qKlu7PyClQKkU3xVdb/nT5Fk
ub63lnuoXspnhB+o3siyqjLGskbxwujLLK4SKhPqMQFqSBiqBv8Azj+T+uw3FxJpseum3khuLovp
UkgjndltU9WW5hSKO4SvEpI4kCilNqYqjT+af5ZaCkmn+pLpS2rSNLZfoq/t/TB5TSzmL6svGI/G
7TU4faPLriqJ1vUNK/LTyb61naSXNpFPQQGSjcrhyzHmQ3c+GY05DDDYO+0mHL2tq6nIRkY86/mj
uYR/0MtY/wDVhl/6SV/6p5jfyiP5r0P+gOf+qj/S/teuaNci602G6C8BPylC1rTmxalfpzYxNi3h
MuPgmY9xI+SNwtajb/3tz/xkH/JtMVVsVUX/AN7Yv+Mcn/EkxVWxVRuP722/4yH/AJNviqtiqjff
7xXH/GN/+InFVbFXYq7FXYq7FXYq7FXYq7FXYq7FXYq7FXYq7FXYqp3MCXFvLA5ISZGjYjrRhQ0r
irAr38ivy7n0Cw0e206CwWwaORbyCz095ZpIoWg53KXFtPbzsyOxJeI/F8QocVVY/wAnfL8UmoSR
X99E179XaARG1jWzktZkuIXtVS3VVKzRK3Fwy9uPHbFUuj/IDyguorqEmoalNdDk8sskluXkmlmN
xLK8ggEn7yV2ZolYRcjyCBvixVbp3/OPfk6xXUgt/qMr6rp8ul3crtaB2imhkt2kLR28fOYRy/3j
8iSAW5GtVWQ/ml5V1PzP5Tk0rTTGLppopAZmKrxQkncBsx9TiM4UHeez3aOPSakZcl8NEbebxn/o
Xrz7/vyx/wCRz/8AVPNd+QyeT3v+jXRd0/8ASj9b3byzq2jCxtNMj1G0mvY1aMwRTxu5aMnlxUHk
dlJ6dM2sJxoCxb5rq9Nm4pZDCYgSTZiRzKfZY4Cjb/3tz/xkH/JtMVVsVUX/AN7Yv+Mcn/EkxVWx
VRuP722/4yH/AJNviqtiqjff7xXH/GN/+InFVbFXYq7FXYq7FXYq7FXYq7FXYq7FXYq7FXYq7FXY
q7FXYqwL82vLM+vWGnxJosutx28sshgiNi4SRoiiNJbag0UEq/EdxKkiGhXvirznRdP/ADOuU1MW
9pqc81nM1jfwRaxMbSirZD0LFXvrWdXtj60nMyxFx8JlbnRVVNfKf59ramGVNQkmks4YZbhdWcGM
QyqX9ADUYg0sipRhIvNlJ/0uNjRVW77R/wA0tCj17zNqckuk250y3mtxHfsyJqNgtm0aTA3FxLcG
9MBtqO0rVqoZhISyr3DynZ6nZ+WtNt9Vme41RYEa/lkYuTcOOcoBJb4Q7EKK7LQDFXzn+UP/AJNz
Tv8AjLef9Q02aTSf3w+P3PsPtN/xlz90P91F9RZu3x5Rt/725/4yD/k2mKq2KqL/AO9sX/GOT/iS
YqrYqo3H97bf8ZD/AMm3xVWxVRvv94rj/jG//ETiqtirsVdirsVdirsVdirsVdirsVdirsVdirsV
dirsVdirsVdirEvzH8xeZNF07TP8O28dzqWo6hHZLFJEs54NDLKxSN7rTkLfuv2p1FK9TtirEB+d
Or6TrE2l+YdPgItZlivbyMTQtEWtbN0jNvANUQSyXF40amS4SKoCiRm6qtRfnX5gXVUS80KzXTkj
0175bbUBc3EKatcQw20qhIhyP+lJyidIzszKzKU5Kph5M/N/WfNGraVYxeWZLKHU4Zb4Xl1JdQRi
zjWBg8Pr2UPryVuQrKn7sdVkYGuKp3+aOrXXlzydd6vpCxW9/DJEsc3po1BJIEbZgRuDmNqZmECR
zd97P6aOq1ccWW5QIO1noLd+UvmTV/MXk+PUtVlE1208sZdUVBxQgDZQBjpchnCyvtJoMWl1Rx4h
UeEebLLf+9uf+Mg/5NpmS6FWxVRf/e2L/jHJ/wASTFVbFVG4/vbb/jIf+Tb4qrYqo33+8Vx/xjf/
AIicVVsVdirsVdirsVdirsVdirsVdirsVdirsVdirsVdirsVdirsVUp7S1uGhaeGOZreT1rdpFDG
OQKV5pUfC3FiKjsTirGNUl/LePXkbULOyk123uozFI1mJblbq4hBEkbiNn5ejAC8in4UT4iAuKoL
TtU/I+0tkbTbvyzb2s0rNG1tJYJG81myXbEcCAXgfhMe6mjbbHFURpN/+T2lyw3ekXHl6xlvo7i6
t7i0eyhaaIb3MqPGVLr+4/eMNvh36YqmfmnQdK836JeaJLdlYxLGty1syNJHInCZUavLiSrK1COh
B75XlxCceEuf2Z2hPR5hliASL5+YpgkHnnyV+VvqeUHj1K8e2b12nCQMD66h6AmSLoD/AC5iDNDB
6N3p59kavtitUDjjxbVcv4du4/e3F/zkT5JR5mNlqVJHDD91B04Kv+//APJw/wAoQ7j+Piw/0Daz
+di+cv8AiGQ+Tfzd8t+bdXOl6dbXkVwsTTlrhIlTihAIqkshr8XhluHVRyGhbre1PZrUaLF4mSUD
G69JN/bEMxf/AHti/wCMcn/EkzJeeYf53/Nvy35O1WLTNTtryaeaBblWtkiZODO6AEvLGa1jPbMX
Nq44zRtwtRroYZcMgeSG8p/m/wCWvN+uQaVpttew3CB5y1ykSpxRCpFUlkNfj8McOrjkNC10+vhl
lwxB/HxZ/mU5qjff7xXH/GN/+InFVbFXYq7FXYq7FXYq7FXYq7FXYq7FXYq7FXYq7FXYq7FXYq7F
XYqwnVfy2e481XXmvTdUbTtdnWKCK5EXqqlqqcJ4GRpFVxJ8Lg7FXVT8QHEqsKv/AMjNft9M129G
s/p7XtUspbWksLryed7Kr87u6uTxVbD7Bfj8VF4qAuKp8n5N3EuoG51DV4LiG+uY73XII7ARevPD
cXFxGLd/XkaCP/Sirq3qMwH2gWaqrLPIflEeVPLkOkNeNqM6vJLcX8iCN5XdiQSoLAcU4p17Yq8n
/Nf8sfPGvedrzU9J036zZSpCscvr28dSkSq3wySK2xHhmq1WmnKZIGz6T7Odv6PTaOOPLPhmDLbh
kevkCw//AJUn+Z3/AFZv+nm0/wCquY/5PL3fc7z/AEV9nf6p/sZ/8Szr8m/y485+XfNz6hrOnfVb
Q2ksQl9aCT42ZCBxjkdv2T2zK0mnnCdyHR532o7c0mq0ohinxS4wfpkO/vAe0v8A72xf8Y5P+JJm
zfPHjP52/lz5y8y+a7S/0TT/AK3axWMcDyetBHSRZpXK0ldG+y47ZrNbp5zmDEdHTdo6TJkyAxFi
vLzQn5Pflv508t+c49Q1rTvqto0EsIl9aCT42AIHGOR26Ke2DR6acJ3IbUx7P0mTHkuQoV5Pd82j
u1G+/wB4rj/jG/8AxE4qrYq7FXYq7FXYq7FXYq7FXYq7FXYq7FXYq7FXYq7FXYq7FXYq7FXYqx/8
wv0r/gHzL+iPX/S36Kvv0f8AVOf1j6x9Wf0vR9P4/U504cd69MVeX+aPMP5p6Rp08dpaazJ5sNzc
z3UtlC93pUiRem1vFbhrK94xPC54opibmjiSTmVLKpdfeevzVgvpNPuZ9atJZLu++qzQaZDO0xSK
4e2tYLdrAEIjxRepIskyFXB9ZfiKKo9PMX5zX/mSaxtxqtjZyzCN5pLKExwyRSyrKsMkunxRiCQB
GR2kn+Ej4+XIYqr6b5i/ON4IDENRuku5LawnlvdNjtZbW6vIgbmdY/Rj5W9jJHRJCGVue7SUBxVN
/wDnI3/lCLH/ALacX/UPPmD2h9A9/wCt7P2G/wAcl/wo/wC6g+cs076oxvUP97Zv9bPoH2P/AOMz
D7j/ALqT89+2P/Gpm94/3MUx8l/8pjoP/bRtP+T6Zue0f8Xyf1JfcXncf1D3vvTPC3fqN9/vFcf8
Y3/4icVVsVdirsVdirsVdirsVdirsVdirsVdirsVdirsVdirsVdirsVdirsVdirsVUpbO0lnhuJY
I5Li25G3mZVZ4y44twYiq8l2NMVYlrX5ix2HnePybBZrPq91b2l1Y+pP6MciXEl2s/JjG/H0I7Lk
AOTOWoFABbFUhtvz70YeVW1/UdFvbEQQ21zc2zzaen7q7ieSOWB7i5thMjekyqoAkY/7r3xVJdW/
O3TNSlFrfeThq2kQXFy887ywzCOO0e4iEqW88as0sno/Am32iCwpvGURLmLbsGpyYTxY5SgeVxJH
3ImTzn+VsNpfXNz5FW0+oc/WjurfRLcsYZ5Le4CSS3SQkwywsrDn8XVOQyHgQ/mj5OX/ACvrP9Wy
/wCnl+tGeVdS/KTzTq8dlZ+SoI0uYnmtdRudOsBBP6UdvLIicGkl5Kl5GfiQKdwCSDmww9oajFEQ
hknGI5ASIHyBddmPiyM5+qR5k7k/Eoj8xNL8q+U7XRtR0nyxoy3U2q29tzexhBVXSRuaGMRsHVkB
U12yrV9s6uMa8WZEjRuUuR+Lg6uQxAGMY7yA5PTcpc5Rvv8AeK4/4xv/AMROKq2KuxV2KuxV2Kux
V2KuxV2KuxV2KuxV2KuxV2KuxV2KuxV2KuxV2KuxV2KuxVJ9T8o+XtTup7u9tPUurhbRHnEkqOP0
fLLPatGyMpjaOS4kIZKMa0JIxVjV7+Xn5TXX1axnjiDwiPSLeFNQuIpD6Fu4WzPpzozn6vKxeNq8
lNWB2xVMIvyp8gxJIiaXRZfU5/6Rcmvqu8j9ZO7SsfpxVfqP5X+R9QkSW509zLHPNdRyRXV1C4lu
ZJZZiGilQ0ka5l5L04sVpx2xVvyt5a8gWEkKeXRA0mkrJEiw3T3DQiQJbSK4aSQ1P1EJ8XdD35Yq
s/Mvy9Z6xoEM97f/AKOs9EuV1e5uPRaf91aRyF14Kyt9lidqnbocidJLUSjjj9RkK8zypxtVhGSI
s1wm/klH/QwP5Rf9X7/p0vf+qOdF/oW7Q/1P/ZQ/4pfzePv+9kWiec/LXmnSLy60G8+uQQoVkf05
YqFkJG0qIemaTUYJ4cksUxU4cx9vTZzpYZRxwyEejICYnvo0ft72Q5U1OxV2KuxV2KuxV2KuxV2K
uxV2KuxV2KuxV2KuxV2KuxV2KuxV2KuxV2KuxV2KvJvMP5SeYry8813tleW0j+ZUvrT6rdySCKC3
urOGJJYWSJmil9eD96BUOhG9UUYqlmr/AJGarqHnIXqWmiWvlqOW2i+oW8SQGewhu7Sf0Z44rNGc
rHaMgWSd0NRQJviqh/0L1dNa/VZYtLe2Fk6CEmQr9e+qXVvHcEGLdkM0NH+0OFRuq4qmvkj8ovNG
gefLXzJeXVndW6w3lvPB6krsv1q8ubpbiHlEP3oEyRt8QqrPvsOSr0Hz7bXF15F8x21tE89zPpd7
HDDGpd3d7d1VVValmYmgAzO7MmI6rFKRoDJGz/nBryi4H3F8Y/8AKufzC/6lfVv+kG5/5oz2L+Vt
J/quP/Tx/W6XwZ9x+T6I/wCcf9E1rSfKGsRarp9zp8rspSO6hkhZgISCQJApOeQ9t5Iz1+aUSJRM
hRG4PpHIvX55xOj00QfVGE7HUeuR37nsea11zsVdirsVdirsVdirsVdirsVdirsVdirsVdirsVdi
rsVdirsVdirsVdirsVdirsVeJaf+an5gXWqyxpBFa2XmW7t5PJl3qECS25043K200oS1milescsE
6iVkashA+AA4qll5/wA5A+aPrGlWtiNOe+voII7u3ltnC293NarcBw314TSROGPH/R1HUeoWUjFU
2h/NbzhceYdJ0i6vNOsZTqw065gjt5BNqCw6ne2M81r6ssoiiUWSc1o7Av8AbX4eSr1fzTJJF5Y1
eSNikiWVwyOpIZWETEEEdCMhl+k+5qzGoS9xSv8ALG4uLnyDok9xK808lsDJLIxd2NTuWNScr0xJ
xi2vRknFEnueWf8AOQms6vY+ZNOhsr64tYpLKrxwyvGrH1XFSFIB2zB185CQo9H1L2L0uLJp5mcI
yPH1APQPR/ydu7q7/LjSLi7mkuLh/rHOaVi7tS6lAqzEk0ApmZpCTjBP43eV9p8cYa/JGIEY+nYb
fwRZnmS6B2KuxV2KuxV2KuxV2KuxV2KuxV2KuxV2KuxV2KuxV2KuxV2KuxV2KqF/eRWNhc3soZor
WJ5pFShYrGpYgVIFaDxxVhcP5x+WI45DrNrf6HMkMF0ltcwrdSvbXMcsiXCrpr31IwltIXLU4AVa
gIqqiD+cX5eetcQpqUkstvI0PCKzvZDLIknpMtsEhb6yVcfF6POnU7b4qtb85vy4WX0xqkjgpHIJ
Y7O9eHhJFFMG9ZIWjoIrmN3+L4FarUxVdqv5veSdLN1HdS3q3lqwQ2B06/W4kLRzyqYo5IELxsln
MfVH7v4CSwGKq2nfmt5Fv7uOzh1ApdSEKiSwTxozFxGypMyejJ6crCOQo7BXopIJGKsgt7jTNd0W
O4hP1nS9Utg8ZIZPUguEqDRgrjkjd6HARYpEgCKLz3yn+YsKeem/L+y0iO00/T3uLeCdZmYhbcMw
+Fl70/mzCxaj954YGwddg1Y8XwhGgL+xlvmryT5W14NeatYJd3NvCyQyM0ilVFWA+FlHU5k5MMJm
5B6TRdr6nSxMcU+EE30/SE20fR9N0bTodN0yAW1lBy9KFSxC82LtuxJ3ZicnCAiKHJxNTqsmfIcm
Q8UzzP2IzJNDsVdirsVdirsVdirsVdirsVdirsVdirsVdirsVdirsVdirsVdirsVUL+zivrC5spS
yxXUTwyMlAwWRSpIqCK0PhirD7j8nvJ40q30/R428vGBHje70iO1tp5kmh+rzCYmF0cyJ1bhyB3U
qcVUX/Jvy6psZLK/1DT7rTJLqbTbq3khMkD3twbiUr6sMqN9toxzVvgJrVvixV0X5L+VItNbTop7
1Ldklj/vIy1JrO3smNTGan07NGqf2ix70CqF038ifKlhd3V2t9qE1xeVE8krW3Jh9Wu7QcmSBGkZ
YtQk+OQs5ovJjTdVfN+R/lmazu7KbUdTktZoZYbOIzQ/6F9Yu4r6eS1YQhg8lzbpITIXoRRaDbFX
oFtbwW1vFbQII4IEWOKMdFRBxUD5AYq8qt/IUnln8x7rz1q+q2VtpE09wwEjMjj6yrKiksoSvxeO
a8YODIchIp1Q03h5jlkQI2ftep33+8Vx/wAY3/4ic2DtVbFXYq7FXYq7FXYq7FXYq7FXYq7FXYq7
FXYq7FXYq7FXYq7FXYq7FXYq7FXjc/k/z3p97rV+mlHW1vbnUm0i3juks5tPFxdlzNDKlxbtW6gc
/EsiSKVVKqrMQqxyLyX+dk8EVrqdveXkMltcQOk2ol4o1N1dyxFkbUXDSem1ug9Zbk8f92qyfEqm
58i/m7DA89jqGprqb2y8GudVeaBLia31BJyYnmkjor/UivwEKd0H28VSePyL+YLXmowroHmK0069
uLq6jca5DM0pmtIraCG+VtTCSRo6M8rlJXZQqDaoKqZXPlD83LCW207SINRksrS+tLizv5NWlcpb
rb2BuoJEa/gVo2mS5CiSKYDdVRFKtiqi3kj84rXT4Ikm1q89XTYmkRda4zRa28DL6zSy3G9tBIB6
kSko1QQj0OKvSvIuledLPVdZbzFcyT2cTi30YmX1Flhaaa5aYryJBAuEtxz+KkVe+6qV/n7FJJ+X
syxozt9Zg+FQSftHwzD14/duv7TH7n4h6Bff7xXH/GN/+InMx2CtirsVdirsVdirsVdirsVdirsV
dirsVdirsVdirsVdirsVdirsVdirsVdirsVdirsVdiryfWvzF8+aB5n1DT5xpWrW1pHLOkCxTaYx
hitWu3JupLi+TmiJxC+iA53LIAcVUYPz7uJ1kddFtoEna/GketfTvJcDTbsW0yyQ2lldTRyuG9SN
ESTkA2441KqnpP59ajfQS3aaJC9uiWV5Kr3f1d4rS+t7B0C1jlFxKs1+1f7scQP2iAVWb+T/ADwv
mzQb7U7a0ezhtwsSl25N65tY55kpxFPQklMLf5aNgPJEuSn+Xmp3+qfltYX+oTtc3k9vMZpn+0xD
uor9AynTSMsYJ5uNo5mWKJPNl+XuU7FXYq7FXYq7FXYq7FXYq7FXYq7FXYq7FXYq7FXYq7FXYq7F
XYq7FXYq7FXYq7FXYqlmp+V/LWrK66ppNlfrI6SyC6t4pg0kQKxufUVqsgJCntirCpNJ/J3y/qN5
oupWNtd32rXp1DUZrrT/AK2omv7uSa3F3cpbtDEollZLf13Bp0J64qibrW/yJtLZb+S58tmPSJWk
geL6lLJBcQRKpECR8nEyxQIoWMc6KoA2GKpxF5q/LWys7u3g1nR7K1juGhvY47m2gWO7umd2SVQy
8JpXDsQ3xE198Sgi1bylP5NtLZvK2g6la3b6OGjubGO5inuIKyNyEyKxdfjqPiHtkMcBEUOTDFjE
IiI5BH6VrkWo32qWiRNG2l3AtpGYghy0SS8hTtSSmMZ2SO5z9TpDihjkTfiR4vduR+hMsm4jsVdi
rsVdirsVdirsVdirsVdirsVdirsVdirsVdirsVdirsVdirsVdirsVdirsVdirFb3yn5gHmK61PRd
dTTbTU2tn1W3azW5mZraiE20zyKkXqRKEbnFJ4rQ4qwu0/IfVPreqXuq+an1O91TS5tMkuJbaUsG
mt5bf1/3t1NQ8ZeRROCVrxCg0Cq24/IG6llnY+ZHaBrmaa2smS/it0iuzP8AWUeO01C1+KUTqpMJ
iQhPijYsxKrLvKX5cW/lzVUv4bpZAqajGYhEUJGoXy3i1dpJGPpBfT3qW67dMVTXy9pF7Y6r5gub
gKItRvVuLYqakoLeKM1HY8kOVY4EGR7y7HW6mGTFhjHnCFH38Uj+l//Z</xmpGImg:image>
               </rdf:li>
            </rdf:Alt>
         </xmp:Thumbnails>
         <xmpTPg:MaxPageSize
   rdf:parseType="Resource">
            <stDim:w>215.194447</stDim:w>
            <stDim:h>187.854167</stDim:h>
            <stDim:unit>Millimeters</stDim:unit>
         </xmpTPg:MaxPageSize>
         <xmpTPg:NPages>1</xmpTPg:NPages>
         <xmpTPg:HasVisibleTransparency>True</xmpTPg:HasVisibleTransparency>
         <xmpTPg:HasVisibleOverprint>False</xmpTPg:HasVisibleOverprint>
         <xmpTPg:Fonts>
            <rdf:Bag>
               <rdf:li
   rdf:parseType="Resource">
                  <stFnt:fontName>ArialMT</stFnt:fontName>
                  <stFnt:fontFamily>Arial</stFnt:fontFamily>
                  <stFnt:fontFace>Regular</stFnt:fontFace>
                  <stFnt:fontType>Open Type</stFnt:fontType>
                  <stFnt:versionString>Version 5.06</stFnt:versionString>
                  <stFnt:composite>False</stFnt:composite>
                  <stFnt:fontFileName>Arial.ttf</stFnt:fontFileName>
               </rdf:li>
            </rdf:Bag>
         </xmpTPg:Fonts>
         <xmpTPg:PlateNames>
            <rdf:Seq>
               <rdf:li>Cyan</rdf:li>
               <rdf:li>Magenta</rdf:li>
               <rdf:li>Yellow</rdf:li>
               <rdf:li>Black</rdf:li>
            </rdf:Seq>
         </xmpTPg:PlateNames>
         <xmpTPg:SwatchGroups>
            <rdf:Seq>
               <rdf:li
   rdf:parseType="Resource">
                  <xmpG:groupName>Default Swatch Group</xmpG:groupName>
                  <xmpG:groupType>0</xmpG:groupType>
               </rdf:li>
            </rdf:Seq>
         </xmpTPg:SwatchGroups>
         <dc:format>image/svg+xml</dc:format>
         <xmpMM:DerivedFrom
   rdf:parseType="Resource">
            <stRef:instanceID>xmp.iid:32c7a648-78e1-4f34-8822-e2674b6dd8e9</stRef:instanceID>
            <stRef:documentID>xmp.did:32c7a648-78e1-4f34-8822-e2674b6dd8e9</stRef:documentID>
            <stRef:originalDocumentID>xmp.did:3c15c195-ca87-45ee-9776-ed63f85c1b72</stRef:originalDocumentID>
         </xmpMM:DerivedFrom>
         <xmpMM:DocumentID>xmp.did:d605c7c7-be29-4c12-baa0-9d3de0998fb9</xmpMM:DocumentID>
         <xmpMM:InstanceID>xmp.iid:d605c7c7-be29-4c12-baa0-9d3de0998fb9</xmpMM:InstanceID>
         <xmpMM:OriginalDocumentID>xmp.did:3c15c195-ca87-45ee-9776-ed63f85c1b72</xmpMM:OriginalDocumentID>
         <xmpMM:History>
            <rdf:Seq>
               <rdf:li
   rdf:parseType="Resource">
                  <stEvt:action>saved</stEvt:action>
                  <stEvt:instanceID>xmp.iid:3c15c195-ca87-45ee-9776-ed63f85c1b72</stEvt:instanceID>
                  <stEvt:when>2013-11-27T11:07:07+01:00</stEvt:when>
                  <stEvt:softwareAgent>Adobe Illustrator CC (Macintosh)</stEvt:softwareAgent>
                  <stEvt:changed>/</stEvt:changed>
               </rdf:li>
               <rdf:li
   rdf:parseType="Resource">
                  <stEvt:action>saved</stEvt:action>
                  <stEvt:instanceID>xmp.iid:d605c7c7-be29-4c12-baa0-9d3de0998fb9</stEvt:instanceID>
                  <stEvt:when>2013-11-27T11:17:41+01:00</stEvt:when>
                  <stEvt:softwareAgent>Adobe Illustrator CC (Macintosh)</stEvt:softwareAgent>
                  <stEvt:changed>/</stEvt:changed>
               </rdf:li>
            </rdf:Seq>
         </xmpMM:History>
      </rdf:Description>
   <cc:Work
   rdf:about=""><dc:format>image/svg+xml</dc:format><dc:type
     rdf:resource="http://purl.org/dc/dcmitype/StillImage" /><dc:title></dc:title></cc:Work></rdf:RDF></metadata></x:xmpmeta>
                                                                                                    
                                                                                                    
                                                                                                    
                                                                                                    
                                                                                                    
                                                                                                    
                                                                                                    
                                                                                                    
                                                                                                    
                                                                                                    
                                                                                                    
                                                                                                    
                                                                                                    
                                                                                                    
                                                                                                    
                                                                                                    
                                                                                                    
                                                                                                    
                                                                                                    
                                                                                                    
                           
<?xpacket end="w"?>
	</metadata>
<g
   id="g32"
   opacity="0.3">
	<line
   id="line4"
   y2="30"
   x2="60"
   y1="25"
   x1="60"
   stroke="#000000"
   fill="none" />
	<line
   id="line6"
   y2="50"
   x2="100"
   y1="25"
   x1="100"
   stroke="#000000"
   fill="none" />
	<line
   id="line8"
   y2="75"
   x2="140"
   y1="25"
   x1="140"
   stroke="#000000"
   fill="none" />
	<line
   id="line10"
   y2="75"
   x2="180"
   y1="25"
   x1="180"
   stroke="#000000"
   fill="none" />
	<line
   id="line12"
   y2="75"
   x2="220"
   y1="25"
   x1="220"
   stroke="#000000"
   fill="none" />
	<line
   id="line14"
   y2="125"
   x2="260"
   y1="25"
   x1="260"
   stroke="#000000"
   fill="none" />
	<line
   id="line16"
   y2="150"
   x2="300"
   y1="25"
   x1="300"
   stroke="#000000"
   fill="none" />
	<line
   id="line18"
   y2="175"
   x2="340"
   y1="25"
   x1="340"
   stroke="#000000"
   fill="none" />
	<line
   id="line20"
   y2="200"
   x2="380"
   y1="25"
   x1="380"
   stroke="#000000"
   fill="none" />
	<line
   id="line22"
   y2="275"
   x2="420"
   y1="25"
   x1="420"
   stroke="#000000"
   fill="none" />
	<line
   id="line24"
   y2="325"
   x2="460"
   y1="25"
   x1="460"
   stroke="#000000"
   fill="none" />
	<line
   id="line26"
   y2="350"
   x2="500"
   y1="25"
   x1="500"
   stroke="#000000"
   fill="none" />
	<line
   id="line28"
   y2="375"
   x2="540"
   y1="25"
   x1="540"
   stroke="#000000"
   fill="none" />
	<line
   id="line30"
   y2="500"
   x2="580"
   y1="25"
   x1="580"
   stroke="#000000"
   fill="none" />
<line
   style="stroke-width:1.00987"
   fill="none"
   stroke="#000000"
   x1="620"
   y1="25"
   x2="620"
   y2="509.41669"
   id="line30-5" /></g>
<line
   style="stroke-width:1.03638"
   id="line34"
   y2="25"
   x2="640"
   y1="25"
   x1="60"
   stroke="#000000"
   fill="none"
   opacity="0.3" />
<g
   id="g36"
   transform="translate(0,50)">
</g>
<g
   id="g152"
   transform="translate(-1880,0.68)">
	<g
   id="g114">
		<g
   id="g40">
			<rect
   id="rect38"
   height="20"
   width="32.636002"
   fill="#ff0000"
   y="33.32"
   x="1964.964" />
		</g>
		<g
   id="g44">
			<rect
   id="rect42"
   height="20"
   width="104.356"
   fill="#ff0000"
   y="58.32"
   x="1997.6" />
		</g>
		<g
   id="g48">
			<rect
   id="rect46"
   height="20"
   width="29.691999"
   fill="#ff0000"
   y="83.32"
   x="2101.9561" />
		</g>
		<g
   id="g52">
			<rect
   id="rect50"
   height="20"
   width="32.188"
   fill="#ff0000"
   y="108.32"
   x="2131.6479" />
		</g>
		<g
   id="g56">
			<rect
   id="rect54"
   height="20"
   width="7.868"
   fill="#ff0000"
   y="133.32001"
   x="2163.8359" />
		</g>
		<g
   id="g60">
			<rect
   id="rect58"
   height="20"
   width="33.203999"
   fill="#ff0000"
   y="108.32"
   x="2171.7041" />
		</g>
		<g
   id="g64">
			<rect
   id="rect62"
   height="20"
   width="36.692001"
   fill="#ff0000"
   y="158.32001"
   x="2212.592" />
		</g>
		<g
   id="g68">
			<rect
   id="rect66"
   height="20"
   width="4.1279998"
   fill="#ff0000"
   y="183.32001"
   x="2249.2839" />
		</g>
		<g
   id="g72">
			<rect
   id="rect70"
   height="20"
   width="7.987"
   fill="#ff0000"
   y="158.32001"
   x="2253.4121" />
		</g>
		<g
   id="g76">
			<rect
   id="rect74"
   height="20"
   width="4.1370001"
   fill="#ff0000"
   y="208.32001"
   x="2261.3989" />
		</g>
		<g
   id="g80">
			<rect
   id="rect78"
   height="20"
   width="8"
   fill="#ff0000"
   y="158.32001"
   x="2265.5359" />
		</g>
		<g
   id="g84">
			<rect
   id="rect82"
   height="20"
   width="24.304001"
   fill="#ff0000"
   y="233.32001"
   x="2273.5359" />
		</g>
		<g
   id="g88">
			<rect
   id="rect86"
   height="20"
   width="12.86"
   fill="#ff0000"
   y="258.32001"
   x="2297.8401" />
		</g>
		<g
   id="g92">
			<rect
   id="rect90"
   height="20"
   width="10.319"
   fill="#ff0000"
   y="283.32001"
   x="2310.7" />
		</g>
		<g
   id="g96">
			<rect
   id="rect94"
   height="20"
   width="42.411999"
   fill="#ff0000"
   y="308.32001"
   x="2321.02" />
		</g>
		<g
   id="g100">
			<rect
   id="rect98"
   height="20"
   width="29.379999"
   fill="#ff0000"
   y="333.32001"
   x="2363.4319" />
		</g>
		<g
   id="g104">
			<rect
   id="rect102"
   height="20"
   width="3.8559999"
   fill="#ff0000"
   y="383.32001"
   x="2447.136" />
		</g>
		<g
   transform="matrix(1.6107409,0,0,1,-1496.921,0)"
   id="g108">
			<rect
   id="rect106"
   height="20"
   width="15.008"
   fill="#ff0000"
   y="408.32001"
   x="2450.9919" />
		</g>
		<g
   style="stroke:none"
   transform="matrix(10.259699,0,0,1,-22825.25,0)"
   id="g112">
			<rect
   style="stroke:none"
   id="rect110"
   height="20"
   width="3.119"
   fill="#ff0000"
   y="508.29501"
   x="2466" />
		</g>
	</g>
	<g
   id="g124">
		<g
   id="g118">
			<rect
   id="rect116"
   height="20"
   width="30.544001"
   fill="#0000ff"
   y="333.32001"
   x="2392.812" />
		</g>
		<g
   id="g122">
			<rect
   id="rect120"
   height="20"
   width="23.780001"
   fill="#0000ff"
   y="383.32001"
   x="2423.355" />
		</g>
	</g>
	<g
   id="g150">
		<g
   id="g128">
			<rect
   id="rect126"
   height="20"
   width="23.136"
   fill="#008000"
   y="308.32001"
   x="2395.4961" />
		</g>
		<g
   id="g132">
			<rect
   id="rect130"
   height="20"
   width="5.3039999"
   fill="#008000"
   y="358.32001"
   x="2418.6321" />
		</g>
		<g
   id="g136">
			<rect
   id="rect134"
   height="20"
   width="4.316"
   fill="#008000"
   y="408.32001"
   x="2423.936" />
		</g>
		<g
   id="g140">
			<rect
   id="rect138"
   height="20"
   width="9.8800001"
   fill="#008000"
   y="433.32001"
   x="2428.252" />
		</g>
		<g
   id="g144">
			<rect
   id="rect142"
   height="20"
   width="5.0359998"
   fill="#008000"
   y="458.32001"
   x="2438.1321" />
		</g>
		<g
   id="g148">
			<rect
   id="rect146"
   height="20"
   width="3.9679999"
   fill="#008000"
   y="483.32001"
   x="2443.168" />
		</g>
	</g>
</g>
<g
   id="g202">
	<text
   id="text154"
   font-size="18px"
   font-family="ArialMT"
   transform="translate(14.4141,50)">Steinitz</text>
	<text
   id="text156"
   font-size="18px"
   font-family="ArialMT"
   transform="translate(49.9707,75)">Lasker</text>
	<text
   id="text158"
   font-size="18px"
   font-family="ArialMT"
   transform="translate(103.2519,100)">Capablanca</text>
	<text
   id="text160"
   font-size="18px"
   font-family="ArialMT"
   transform="translate(163.2812,125)">Alekhine</text>
	<text
   id="text162"
   font-size="18px"
   font-family="ArialMT"
   transform="translate(229.9707,150)">Euwe</text>
	<text
   id="text164"
   font-size="18px"
   font-family="ArialMT"
   transform="translate(248.8477,175)">Botvinnik</text>
	<text
   id="text166"
   font-size="18px"
   font-family="ArialMT"
   transform="translate(284.4336,200)">Smyslov</text>
	<text
   id="text172"
   enable-background="new    "
   transform="translate(344.4336,225)"><tspan
     id="tspan168"
     letter-spacing="-1"
     font-size="18px"
     font-family="ArialMT"
     y="0"
     x="0">T</tspan><tspan
     id="tspan170"
     font-size="18px"
     font-family="ArialMT"
     y="0"
     x="9">al</tspan></text>
	<text
   id="text174"
   font-size="18px"
   font-family="ArialMT"
   transform="translate(305.5078,250)">Petrosian</text>
	<text
   id="text176"
   font-size="18px"
   font-family="ArialMT"
   transform="translate(334.4141,275)">Spassky</text>
	<text
   id="text178"
   font-size="18px"
   font-family="ArialMT"
   transform="translate(354.4336,300)">Fischer</text>
	<text
   id="text180"
   font-size="18px"
   font-family="ArialMT"
   transform="translate(366.6309,325)">Karpov</text>
	<text
   id="text182"
   font-size="18px"
   font-family="ArialMT"
   transform="translate(395.5078,350)">Kasparov</text>
	<text
   id="text184"
   font-size="18px"
   font-family="ArialMT"
   transform="translate(441.0645,375)">Khalifman</text>
	<text
   id="text186"
   font-size="18px"
   font-family="ArialMT"
   transform="translate(456.6504,400)">Kramnik</text>
	<text
   id="text188"
   font-size="18px"
   font-family="ArialMT"
   transform="translate(472.168,425)">Anand</text>
	<text
   id="text190"
   font-size="18px"
   font-family="ArialMT"
   transform="translate(433.2812,450)">Ponomariov</text>
	<text
   id="text192"
   font-size="18px"
   font-family="ArialMT"
   transform="translate(418.8184,475)">Kasimdzhanov</text>
	<text
   id="text198"
   enable-background="new    "
   transform="translate(491.0645,500)"><tspan
     id="tspan194"
     letter-spacing="-1"
     font-size="18px"
     font-family="ArialMT"
     y="0"
     x="0">T</tspan><tspan
     id="tspan196"
     font-size="18px"
     font-family="ArialMT"
     y="0"
     x="9">opalov</tspan></text>
	<text
   y="525.17102"
   x="519.06451"
   id="text200"
   font-size="18px"
   font-family="ArialMT">Carlsen</text>
</g>
<g
   id="g350"
   transform="translate(50,25)">
	<g
   id="g346"
   transform="translate(0,-10)">
		<g
   id="g344">
			<g
   id="g212"
   enable-background="new    ">
				<path
   id="path204"
   d="m -1.096,0 h -1.318 v -8.4 c -0.317,0.303 -0.734,0.605 -1.249,0.908 -0.516,0.303 -0.978,0.529 -1.388,0.681 v -1.274 c 0.737,-0.347 1.382,-0.767 1.934,-1.26 0.552,-0.493 0.942,-0.972 1.172,-1.436 h 0.85 V 0 Z" />
				<path
   id="path206"
   d="M 4.309,-5.822 C 3.762,-6.022 3.357,-6.308 3.093,-6.679 2.829,-7.05 2.698,-7.495 2.698,-8.013 c 0,-0.781 0.281,-1.438 0.842,-1.97 0.561,-0.532 1.309,-0.799 2.241,-0.799 0.938,0 1.692,0.272 2.263,0.816 0.572,0.546 0.857,1.209 0.857,1.989 0,0.498 -0.131,0.932 -0.392,1.301 -0.261,0.368 -0.658,0.653 -1.19,0.854 0.66,0.215 1.161,0.561 1.506,1.039 0.344,0.479 0.516,1.051 0.516,1.715 0,0.918 -0.325,1.689 -0.974,2.314 -0.649,0.625 -1.504,0.938 -2.564,0.938 -1.06,0 -1.914,-0.315 -2.563,-0.942 -0.65,-0.628 -0.974,-1.41 -0.974,-2.347 0,-0.698 0.177,-1.283 0.531,-1.754 0.353,-0.472 0.858,-0.792 1.512,-0.963 z m -0.688,2.724 c 0,0.376 0.089,0.739 0.268,1.091 0.177,0.352 0.442,0.624 0.794,0.817 0.351,0.193 0.73,0.29 1.135,0.29 0.63,0 1.15,-0.203 1.56,-0.608 0.41,-0.405 0.615,-0.92 0.615,-1.546 0,-0.634 -0.211,-1.159 -0.633,-1.574 -0.423,-0.416 -0.951,-0.624 -1.586,-0.624 -0.62,0 -1.134,0.205 -1.542,0.615 -0.408,0.41 -0.611,0.924 -0.611,1.539 z m 0.424,-4.959 c 0,0.508 0.164,0.923 0.491,1.245 0.327,0.322 0.752,0.483 1.274,0.483 0.508,0 0.924,-0.16 1.249,-0.479 0.325,-0.32 0.487,-0.712 0.487,-1.176 0,-0.483 -0.167,-0.89 -0.502,-1.22 -0.334,-0.328 -0.75,-0.493 -1.248,-0.493 -0.503,0 -0.92,0.161 -1.252,0.483 -0.332,0.322 -0.499,0.708 -0.499,1.157 z" />
				<path
   id="path208"
   d="m 12.651,-5.822 c -0.547,-0.2 -0.952,-0.486 -1.216,-0.857 -0.264,-0.371 -0.395,-0.816 -0.395,-1.334 0,-0.781 0.281,-1.438 0.842,-1.97 0.561,-0.532 1.309,-0.799 2.241,-0.799 0.938,0 1.692,0.272 2.263,0.816 0.571,0.545 0.857,1.208 0.857,1.988 0,0.498 -0.131,0.932 -0.392,1.301 -0.261,0.368 -0.658,0.653 -1.19,0.854 0.659,0.215 1.161,0.562 1.505,1.039 0.344,0.479 0.516,1.051 0.516,1.715 0,0.918 -0.325,1.689 -0.974,2.314 -0.649,0.625 -1.504,0.938 -2.563,0.938 -1.059,0 -1.914,-0.314 -2.563,-0.941 -0.649,-0.628 -0.974,-1.41 -0.974,-2.348 0,-0.698 0.177,-1.283 0.531,-1.754 0.354,-0.471 0.858,-0.791 1.512,-0.962 z m -0.688,2.724 c 0,0.376 0.089,0.739 0.268,1.091 0.178,0.352 0.443,0.624 0.794,0.816 0.352,0.193 0.73,0.29 1.135,0.29 0.63,0 1.15,-0.203 1.56,-0.608 0.41,-0.405 0.615,-0.92 0.615,-1.546 0,-0.634 -0.211,-1.159 -0.633,-1.574 -0.423,-0.415 -0.951,-0.623 -1.586,-0.623 -0.62,0 -1.134,0.205 -1.542,0.615 -0.408,0.41 -0.611,0.924 -0.611,1.539 z m 0.425,-4.959 c 0,0.508 0.164,0.923 0.491,1.245 0.327,0.322 0.752,0.483 1.274,0.483 0.508,0 0.924,-0.16 1.249,-0.479 0.325,-0.32 0.487,-0.712 0.487,-1.176 0,-0.483 -0.167,-0.89 -0.502,-1.22 -0.334,-0.329 -0.75,-0.494 -1.249,-0.494 -0.503,0 -0.92,0.161 -1.252,0.483 -0.332,0.322 -0.498,0.709 -0.498,1.158 z" />
				<path
   id="path210"
   d="m 18.965,-5.295 c 0,-1.27 0.13,-2.292 0.392,-3.065 0.261,-0.774 0.649,-1.371 1.164,-1.791 0.515,-0.42 1.164,-0.63 1.945,-0.63 0.576,0 1.082,0.116 1.516,0.348 0.435,0.232 0.793,0.566 1.077,1.004 0.283,0.437 0.505,0.969 0.667,1.597 0.161,0.627 0.242,1.474 0.242,2.538 0,1.26 -0.129,2.276 -0.388,3.05 -0.259,0.774 -0.646,1.372 -1.161,1.795 -0.515,0.422 -1.166,0.634 -1.952,0.634 -1.035,0 -1.848,-0.371 -2.439,-1.113 -0.709,-0.896 -1.063,-2.35 -1.063,-4.367 z m 1.355,0 c 0,1.763 0.206,2.936 0.619,3.519 0.412,0.584 0.921,0.876 1.527,0.876 0.606,0 1.114,-0.293 1.527,-0.879 0.413,-0.586 0.619,-1.758 0.619,-3.516 0,-1.768 -0.207,-2.942 -0.619,-3.523 -0.412,-0.581 -0.926,-0.871 -1.542,-0.871 -0.605,0 -1.089,0.256 -1.45,0.769 -0.454,0.653 -0.681,1.862 -0.681,3.625 z" />
			</g>
			<g
   id="g222"
   enable-background="new    ">
				<path
   id="path214"
   d="m 38.904,0 h -1.318 v -8.4 c -0.317,0.303 -0.734,0.605 -1.249,0.908 -0.516,0.303 -0.978,0.529 -1.388,0.681 v -1.274 c 0.737,-0.347 1.382,-0.767 1.934,-1.26 0.552,-0.493 0.942,-0.972 1.172,-1.436 h 0.85 V 0 Z" />
				<path
   id="path216"
   d="m 44.309,-5.822 c -0.547,-0.2 -0.952,-0.486 -1.216,-0.857 -0.264,-0.371 -0.396,-0.815 -0.396,-1.333 0,-0.781 0.281,-1.438 0.842,-1.97 0.561,-0.532 1.309,-0.799 2.241,-0.799 0.938,0 1.692,0.272 2.263,0.816 0.571,0.545 0.857,1.208 0.857,1.988 0,0.498 -0.131,0.932 -0.392,1.301 -0.261,0.368 -0.658,0.653 -1.19,0.854 0.659,0.215 1.161,0.562 1.505,1.039 0.344,0.479 0.516,1.051 0.516,1.715 0,0.918 -0.325,1.689 -0.974,2.314 -0.649,0.625 -1.504,0.938 -2.563,0.938 -1.059,0 -1.914,-0.314 -2.563,-0.941 -0.649,-0.628 -0.974,-1.41 -0.974,-2.348 0,-0.698 0.177,-1.283 0.531,-1.754 0.354,-0.472 0.859,-0.792 1.513,-0.963 z m -0.688,2.724 c 0,0.376 0.089,0.739 0.268,1.091 0.178,0.352 0.443,0.624 0.794,0.816 0.352,0.193 0.73,0.29 1.135,0.29 0.63,0 1.15,-0.203 1.56,-0.608 0.41,-0.405 0.615,-0.92 0.615,-1.546 0,-0.634 -0.211,-1.159 -0.633,-1.574 -0.423,-0.415 -0.951,-0.623 -1.586,-0.623 -0.62,0 -1.134,0.205 -1.542,0.615 -0.408,0.41 -0.611,0.924 -0.611,1.539 z m 0.424,-4.959 c 0,0.508 0.164,0.923 0.491,1.245 0.327,0.322 0.752,0.483 1.274,0.483 0.508,0 0.924,-0.16 1.249,-0.479 0.325,-0.32 0.487,-0.712 0.487,-1.176 0,-0.483 -0.167,-0.89 -0.502,-1.22 -0.334,-0.329 -0.75,-0.494 -1.249,-0.494 -0.503,0 -0.92,0.161 -1.252,0.483 -0.332,0.322 -0.498,0.709 -0.498,1.158 z" />
				<path
   id="path218"
   d="M 50.82,-2.482 52.087,-2.6 c 0.107,0.596 0.312,1.027 0.615,1.296 0.303,0.269 0.692,0.404 1.165,0.404 0.405,0 0.76,-0.093 1.065,-0.279 0.305,-0.185 0.556,-0.433 0.751,-0.743 0.195,-0.31 0.359,-0.729 0.491,-1.256 0.132,-0.527 0.198,-1.064 0.198,-1.611 0,-0.059 -0.002,-0.146 -0.007,-0.264 -0.264,0.42 -0.624,0.761 -1.081,1.021 -0.457,0.262 -0.951,0.392 -1.483,0.392 -0.889,0 -1.641,-0.322 -2.256,-0.967 -0.615,-0.645 -0.923,-1.494 -0.923,-2.549 0,-1.088 0.321,-1.965 0.963,-2.629 0.642,-0.664 1.446,-0.996 2.413,-0.996 0.698,0 1.337,0.188 1.915,0.564 0.579,0.376 1.019,0.911 1.318,1.607 0.301,0.695 0.451,1.703 0.451,3.021 0,1.372 -0.149,2.464 -0.447,3.277 -0.298,0.812 -0.741,1.432 -1.329,1.856 -0.589,0.425 -1.278,0.638 -2.069,0.638 -0.84,0 -1.526,-0.233 -2.058,-0.7 -0.531,-0.464 -0.851,-1.12 -0.959,-1.964 z m 5.398,-4.74 c 0,-0.757 -0.202,-1.357 -0.604,-1.802 -0.403,-0.444 -0.888,-0.666 -1.454,-0.666 -0.586,0 -1.096,0.239 -1.531,0.717 -0.435,0.479 -0.652,1.1 -0.652,1.861 0,0.684 0.206,1.238 0.619,1.666 0.412,0.427 0.921,0.641 1.527,0.641 0.61,0 1.112,-0.214 1.505,-0.641 0.393,-0.427 0.59,-1.019 0.59,-1.776 z" />
				<path
   id="path220"
   d="m 58.965,-5.295 c 0,-1.27 0.13,-2.292 0.392,-3.065 0.261,-0.774 0.649,-1.371 1.164,-1.791 0.515,-0.42 1.164,-0.63 1.945,-0.63 0.576,0 1.082,0.116 1.516,0.348 0.435,0.232 0.793,0.566 1.077,1.004 0.283,0.437 0.505,0.969 0.667,1.597 0.161,0.627 0.242,1.474 0.242,2.538 0,1.26 -0.129,2.276 -0.388,3.05 -0.259,0.774 -0.646,1.372 -1.161,1.795 -0.515,0.422 -1.166,0.634 -1.952,0.634 -1.035,0 -1.848,-0.371 -2.439,-1.113 -0.709,-0.896 -1.063,-2.35 -1.063,-4.367 z m 1.355,0 c 0,1.763 0.206,2.936 0.619,3.519 0.412,0.584 0.921,0.876 1.527,0.876 0.606,0 1.114,-0.293 1.527,-0.879 0.413,-0.586 0.619,-1.758 0.619,-3.516 0,-1.768 -0.207,-2.942 -0.619,-3.523 -0.412,-0.581 -0.926,-0.871 -1.542,-0.871 -0.605,0 -1.089,0.256 -1.45,0.769 -0.454,0.653 -0.681,1.862 -0.681,3.625 z" />
			</g>
			<g
   id="g232"
   enable-background="new    ">
				<path
   id="path224"
   d="m 78.904,0 h -1.318 v -8.4 c -0.317,0.303 -0.734,0.605 -1.249,0.908 -0.516,0.303 -0.978,0.529 -1.388,0.681 v -1.274 c 0.737,-0.347 1.382,-0.767 1.934,-1.26 0.552,-0.493 0.942,-0.972 1.172,-1.436 h 0.85 V 0 Z" />
				<path
   id="path226"
   d="M 82.478,-2.482 83.745,-2.6 c 0.107,0.596 0.312,1.027 0.615,1.296 0.303,0.269 0.691,0.404 1.165,0.404 0.405,0 0.76,-0.093 1.065,-0.279 0.305,-0.185 0.556,-0.433 0.751,-0.743 0.195,-0.31 0.359,-0.729 0.491,-1.256 0.132,-0.527 0.198,-1.065 0.198,-1.612 0,-0.059 -0.002,-0.146 -0.007,-0.264 -0.264,0.42 -0.624,0.761 -1.081,1.021 -0.457,0.262 -0.951,0.392 -1.483,0.392 -0.889,0 -1.641,-0.322 -2.256,-0.967 -0.615,-0.645 -0.923,-1.494 -0.923,-2.548 0,-1.088 0.321,-1.965 0.963,-2.629 0.642,-0.664 1.446,-0.996 2.413,-0.996 0.698,0 1.337,0.188 1.915,0.564 0.579,0.376 1.019,0.911 1.318,1.607 0.301,0.695 0.451,1.703 0.451,3.021 0,1.372 -0.149,2.464 -0.447,3.277 -0.298,0.812 -0.741,1.432 -1.329,1.856 -0.589,0.425 -1.278,0.638 -2.069,0.638 -0.84,0 -1.526,-0.233 -2.058,-0.7 -0.532,-0.464 -0.852,-1.12 -0.959,-1.964 z m 5.398,-4.74 c 0,-0.757 -0.202,-1.357 -0.604,-1.802 -0.403,-0.444 -0.888,-0.666 -1.454,-0.666 -0.586,0 -1.096,0.239 -1.531,0.717 -0.435,0.479 -0.652,1.1 -0.652,1.861 0,0.684 0.206,1.238 0.619,1.666 0.412,0.427 0.921,0.641 1.527,0.641 0.61,0 1.112,-0.214 1.505,-0.641 0.393,-0.427 0.59,-1.019 0.59,-1.776 z" />
				<path
   id="path228"
   d="m 90.623,-5.295 c 0,-1.27 0.13,-2.292 0.392,-3.065 0.261,-0.774 0.649,-1.371 1.164,-1.791 0.515,-0.42 1.164,-0.63 1.945,-0.63 0.576,0 1.082,0.116 1.516,0.348 0.435,0.232 0.793,0.566 1.077,1.004 0.283,0.436 0.505,0.968 0.666,1.596 0.161,0.627 0.242,1.474 0.242,2.538 0,1.26 -0.129,2.276 -0.388,3.05 -0.259,0.774 -0.646,1.372 -1.161,1.795 -0.515,0.422 -1.166,0.634 -1.952,0.634 -1.035,0 -1.848,-0.371 -2.439,-1.113 -0.708,-0.895 -1.062,-2.349 -1.062,-4.366 z m 1.355,0 c 0,1.763 0.206,2.936 0.619,3.519 0.412,0.584 0.921,0.876 1.527,0.876 0.606,0 1.114,-0.293 1.527,-0.879 0.413,-0.586 0.619,-1.758 0.619,-3.516 0,-1.768 -0.207,-2.942 -0.619,-3.523 -0.412,-0.581 -0.926,-0.871 -1.542,-0.871 -0.605,0 -1.089,0.256 -1.45,0.769 -0.454,0.653 -0.681,1.862 -0.681,3.625 z" />
				<path
   id="path230"
   d="m 98.965,-5.295 c 0,-1.27 0.13,-2.292 0.392,-3.065 0.261,-0.774 0.649,-1.371 1.164,-1.791 0.515,-0.42 1.164,-0.63 1.945,-0.63 0.576,0 1.082,0.116 1.516,0.348 0.435,0.232 0.793,0.566 1.077,1.004 0.283,0.437 0.505,0.969 0.667,1.597 0.161,0.627 0.242,1.474 0.242,2.538 0,1.26 -0.129,2.276 -0.388,3.05 -0.259,0.774 -0.646,1.372 -1.161,1.795 -0.515,0.422 -1.166,0.634 -1.952,0.634 -1.035,0 -1.848,-0.371 -2.439,-1.113 -0.709,-0.896 -1.063,-2.35 -1.063,-4.367 z m 1.355,0 c 0,1.763 0.206,2.936 0.619,3.519 0.412,0.584 0.921,0.876 1.527,0.876 0.606,0 1.114,-0.293 1.527,-0.879 0.413,-0.586 0.619,-1.758 0.619,-3.516 0,-1.768 -0.207,-2.942 -0.619,-3.523 -0.412,-0.581 -0.926,-0.871 -1.542,-0.871 -0.605,0 -1.089,0.256 -1.45,0.769 -0.454,0.653 -0.681,1.862 -0.681,3.625 z" />
			</g>
			<g
   id="g242"
   enable-background="new    ">
				<path
   id="path234"
   d="m 118.904,0 h -1.318 v -8.4 c -0.317,0.303 -0.734,0.605 -1.249,0.908 -0.516,0.303 -0.978,0.529 -1.388,0.681 v -1.274 c 0.737,-0.347 1.382,-0.767 1.934,-1.26 0.552,-0.493 0.942,-0.972 1.172,-1.436 h 0.85 V 0 Z" />
				<path
   id="path236"
   d="m 122.478,-2.482 1.267,-0.117 c 0.107,0.596 0.312,1.027 0.615,1.296 0.303,0.269 0.691,0.403 1.165,0.403 0.405,0 0.76,-0.093 1.065,-0.279 0.305,-0.185 0.556,-0.433 0.751,-0.743 0.195,-0.31 0.359,-0.729 0.491,-1.256 0.132,-0.527 0.198,-1.064 0.198,-1.611 0,-0.059 -0.002,-0.146 -0.007,-0.264 -0.264,0.42 -0.624,0.761 -1.081,1.021 -0.457,0.262 -0.951,0.392 -1.483,0.392 -0.889,0 -1.641,-0.322 -2.256,-0.967 -0.615,-0.645 -0.923,-1.494 -0.923,-2.549 0,-1.088 0.321,-1.965 0.963,-2.629 0.642,-0.664 1.446,-0.996 2.413,-0.996 0.698,0 1.337,0.188 1.915,0.564 0.579,0.376 1.019,0.911 1.318,1.607 0.301,0.695 0.451,1.703 0.451,3.021 0,1.372 -0.149,2.464 -0.447,3.277 -0.298,0.812 -0.741,1.432 -1.329,1.856 -0.589,0.425 -1.278,0.638 -2.069,0.638 -0.84,0 -1.526,-0.233 -2.058,-0.7 -0.532,-0.464 -0.852,-1.12 -0.959,-1.964 z m 5.398,-4.74 c 0,-0.757 -0.202,-1.357 -0.604,-1.802 -0.403,-0.444 -0.888,-0.666 -1.454,-0.666 -0.586,0 -1.096,0.239 -1.531,0.717 -0.435,0.479 -0.652,1.1 -0.652,1.861 0,0.684 0.206,1.238 0.619,1.666 0.412,0.427 0.921,0.641 1.527,0.641 0.61,0 1.112,-0.214 1.505,-0.641 0.393,-0.427 0.59,-1.019 0.59,-1.776 z" />
				<path
   id="path238"
   d="m 135.588,0 h -1.318 v -8.4 c -0.317,0.303 -0.734,0.605 -1.249,0.908 -0.516,0.303 -0.978,0.529 -1.388,0.681 v -1.274 c 0.737,-0.347 1.382,-0.767 1.934,-1.26 0.552,-0.493 0.942,-0.972 1.172,-1.436 h 0.85 V 0 Z" />
				<path
   id="path240"
   d="m 138.965,-5.295 c 0,-1.27 0.13,-2.292 0.392,-3.065 0.261,-0.774 0.649,-1.371 1.164,-1.791 0.515,-0.42 1.164,-0.63 1.945,-0.63 0.576,0 1.082,0.116 1.516,0.348 0.435,0.232 0.793,0.566 1.077,1.004 0.283,0.437 0.505,0.969 0.667,1.597 0.161,0.627 0.242,1.474 0.242,2.538 0,1.26 -0.129,2.276 -0.388,3.05 -0.259,0.774 -0.646,1.372 -1.161,1.795 -0.515,0.422 -1.166,0.634 -1.952,0.634 -1.035,0 -1.848,-0.371 -2.439,-1.113 -0.709,-0.896 -1.063,-2.35 -1.063,-4.367 z m 1.355,0 c 0,1.763 0.206,2.936 0.619,3.519 0.412,0.584 0.921,0.876 1.527,0.876 0.606,0 1.114,-0.293 1.527,-0.879 0.413,-0.586 0.619,-1.758 0.619,-3.516 0,-1.768 -0.207,-2.942 -0.619,-3.523 -0.412,-0.581 -0.926,-0.871 -1.542,-0.871 -0.605,0 -1.089,0.256 -1.45,0.769 -0.454,0.653 -0.681,1.862 -0.681,3.625 z" />
			</g>
			<g
   id="g252"
   enable-background="new    ">
				<path
   id="path244"
   d="m 158.904,0 h -1.318 v -8.4 c -0.317,0.303 -0.734,0.605 -1.249,0.908 -0.516,0.303 -0.978,0.529 -1.388,0.681 v -1.274 c 0.737,-0.347 1.382,-0.767 1.934,-1.26 0.552,-0.493 0.942,-0.972 1.172,-1.436 h 0.85 V 0 Z" />
				<path
   id="path246"
   d="m 162.478,-2.482 1.267,-0.117 c 0.107,0.596 0.312,1.027 0.615,1.296 0.303,0.269 0.691,0.403 1.165,0.403 0.405,0 0.76,-0.093 1.065,-0.279 0.305,-0.185 0.556,-0.433 0.751,-0.743 0.195,-0.31 0.359,-0.729 0.491,-1.256 0.132,-0.527 0.198,-1.064 0.198,-1.611 0,-0.059 -0.002,-0.146 -0.007,-0.264 -0.264,0.42 -0.624,0.761 -1.081,1.021 -0.457,0.262 -0.951,0.392 -1.483,0.392 -0.889,0 -1.641,-0.322 -2.256,-0.967 -0.615,-0.645 -0.923,-1.494 -0.923,-2.549 0,-1.088 0.321,-1.965 0.963,-2.629 0.642,-0.664 1.446,-0.996 2.413,-0.996 0.698,0 1.337,0.188 1.915,0.564 0.579,0.376 1.019,0.911 1.318,1.607 0.301,0.695 0.451,1.703 0.451,3.021 0,1.372 -0.149,2.464 -0.447,3.277 -0.298,0.812 -0.741,1.432 -1.329,1.856 -0.589,0.425 -1.278,0.638 -2.069,0.638 -0.84,0 -1.526,-0.233 -2.058,-0.7 -0.532,-0.464 -0.852,-1.12 -0.959,-1.964 z m 5.398,-4.74 c 0,-0.757 -0.202,-1.357 -0.604,-1.802 -0.403,-0.444 -0.888,-0.666 -1.454,-0.666 -0.586,0 -1.096,0.239 -1.531,0.717 -0.435,0.479 -0.652,1.1 -0.652,1.861 0,0.684 0.206,1.238 0.619,1.666 0.412,0.427 0.921,0.641 1.527,0.641 0.61,0 1.112,-0.214 1.505,-0.641 0.393,-0.427 0.59,-1.019 0.59,-1.776 z" />
				<path
   id="path248"
   d="M 177.551,-1.268 V 0 h -7.097 c -0.01,-0.317 0.042,-0.623 0.154,-0.916 0.181,-0.482 0.47,-0.959 0.868,-1.428 0.398,-0.469 0.973,-1.011 1.725,-1.626 1.167,-0.957 1.956,-1.715 2.366,-2.274 0.41,-0.559 0.615,-1.088 0.615,-1.586 0,-0.521 -0.187,-0.963 -0.561,-1.321 -0.373,-0.359 -0.86,-0.538 -1.461,-0.538 -0.635,0 -1.143,0.189 -1.523,0.57 -0.38,0.381 -0.574,0.908 -0.579,1.582 l -1.355,-0.139 c 0.093,-1.011 0.442,-1.781 1.047,-2.311 0.605,-0.53 1.418,-0.795 2.439,-0.795 1.03,0 1.846,0.285 2.446,0.857 0.601,0.57 0.901,1.279 0.901,2.123 0,0.431 -0.088,0.853 -0.264,1.268 -0.176,0.415 -0.468,0.853 -0.875,1.311 -0.408,0.46 -1.085,1.09 -2.032,1.891 -0.791,0.664 -1.299,1.114 -1.523,1.351 -0.225,0.237 -0.41,0.476 -0.557,0.714 h 5.266 z" />
				<path
   id="path250"
   d="m 178.965,-5.295 c 0,-1.27 0.13,-2.292 0.392,-3.065 0.261,-0.774 0.649,-1.371 1.164,-1.791 0.515,-0.42 1.164,-0.63 1.945,-0.63 0.576,0 1.082,0.116 1.516,0.348 0.435,0.232 0.793,0.566 1.077,1.004 0.283,0.437 0.505,0.969 0.667,1.597 0.161,0.627 0.242,1.474 0.242,2.538 0,1.26 -0.129,2.276 -0.388,3.05 -0.259,0.774 -0.646,1.372 -1.161,1.795 -0.515,0.422 -1.166,0.634 -1.952,0.634 -1.035,0 -1.848,-0.371 -2.439,-1.113 -0.709,-0.896 -1.063,-2.35 -1.063,-4.367 z m 1.355,0 c 0,1.763 0.206,2.936 0.619,3.519 0.412,0.584 0.921,0.876 1.527,0.876 0.606,0 1.114,-0.293 1.527,-0.879 0.413,-0.586 0.619,-1.758 0.619,-3.516 0,-1.768 -0.207,-2.942 -0.619,-3.523 -0.412,-0.581 -0.926,-0.871 -1.542,-0.871 -0.605,0 -1.089,0.256 -1.45,0.769 -0.454,0.653 -0.681,1.862 -0.681,3.625 z" />
			</g>
			<g
   id="g262"
   enable-background="new    ">
				<path
   id="path254"
   d="m 198.904,0 h -1.318 v -8.4 c -0.317,0.303 -0.734,0.605 -1.249,0.908 -0.516,0.303 -0.978,0.529 -1.388,0.681 v -1.274 c 0.737,-0.347 1.382,-0.767 1.934,-1.26 0.552,-0.493 0.942,-0.972 1.172,-1.436 h 0.85 V 0 Z" />
				<path
   id="path256"
   d="m 202.478,-2.482 1.267,-0.117 c 0.107,0.596 0.312,1.027 0.615,1.296 0.303,0.269 0.691,0.403 1.165,0.403 0.405,0 0.76,-0.093 1.065,-0.279 0.305,-0.185 0.556,-0.433 0.751,-0.743 0.195,-0.31 0.359,-0.729 0.491,-1.256 0.132,-0.527 0.198,-1.064 0.198,-1.611 0,-0.059 -0.002,-0.146 -0.007,-0.264 -0.264,0.42 -0.624,0.761 -1.081,1.021 -0.457,0.262 -0.951,0.392 -1.483,0.392 -0.889,0 -1.641,-0.322 -2.256,-0.967 -0.615,-0.645 -0.923,-1.494 -0.923,-2.549 0,-1.088 0.321,-1.965 0.963,-2.629 0.642,-0.664 1.446,-0.996 2.413,-0.996 0.698,0 1.337,0.188 1.915,0.564 0.579,0.376 1.019,0.911 1.318,1.607 0.301,0.695 0.451,1.703 0.451,3.021 0,1.372 -0.149,2.464 -0.447,3.277 -0.298,0.812 -0.741,1.432 -1.329,1.856 -0.589,0.425 -1.278,0.638 -2.069,0.638 -0.84,0 -1.526,-0.233 -2.058,-0.7 -0.532,-0.464 -0.852,-1.12 -0.959,-1.964 z m 5.398,-4.74 c 0,-0.757 -0.202,-1.357 -0.604,-1.802 -0.403,-0.444 -0.888,-0.666 -1.454,-0.666 -0.586,0 -1.096,0.239 -1.531,0.717 -0.435,0.479 -0.652,1.1 -0.652,1.861 0,0.684 0.206,1.238 0.619,1.666 0.412,0.427 0.921,0.641 1.527,0.641 0.61,0 1.112,-0.214 1.505,-0.641 0.393,-0.427 0.59,-1.019 0.59,-1.776 z" />
				<path
   id="path258"
   d="m 210.63,-2.834 1.318,-0.176 c 0.151,0.746 0.409,1.285 0.772,1.614 0.364,0.33 0.807,0.495 1.33,0.495 0.62,0 1.144,-0.215 1.571,-0.645 0.427,-0.43 0.641,-0.962 0.641,-1.598 0,-0.604 -0.198,-1.104 -0.593,-1.497 -0.396,-0.394 -0.898,-0.59 -1.509,-0.59 -0.249,0 -0.559,0.049 -0.93,0.146 l 0.146,-1.157 c 0.088,0.01 0.159,0.015 0.212,0.015 0.562,0 1.067,-0.146 1.516,-0.439 0.449,-0.293 0.674,-0.744 0.674,-1.354 0,-0.484 -0.164,-0.884 -0.491,-1.201 -0.327,-0.317 -0.75,-0.477 -1.267,-0.477 -0.513,0 -0.94,0.161 -1.282,0.483 -0.342,0.322 -0.562,0.806 -0.659,1.45 l -1.318,-0.234 c 0.161,-0.884 0.527,-1.568 1.099,-2.055 0.571,-0.485 1.282,-0.729 2.131,-0.729 0.586,0 1.125,0.126 1.619,0.377 0.493,0.252 0.87,0.595 1.132,1.029 0.261,0.435 0.392,0.896 0.392,1.385 0,0.464 -0.125,0.886 -0.374,1.267 -0.249,0.381 -0.618,0.684 -1.106,0.908 0.635,0.146 1.128,0.45 1.479,0.912 0.352,0.461 0.527,1.039 0.527,1.731 0,0.938 -0.342,1.732 -1.025,2.385 -0.684,0.651 -1.548,0.978 -2.593,0.978 -0.942,0 -1.725,-0.28 -2.348,-0.843 -0.621,-0.559 -0.976,-1.287 -1.064,-2.18 z" />
				<path
   id="path260"
   d="m 218.965,-5.295 c 0,-1.27 0.13,-2.292 0.392,-3.065 0.261,-0.774 0.649,-1.371 1.164,-1.791 0.515,-0.42 1.164,-0.63 1.945,-0.63 0.576,0 1.082,0.116 1.516,0.348 0.435,0.232 0.793,0.566 1.077,1.004 0.283,0.437 0.505,0.969 0.667,1.597 0.161,0.627 0.242,1.474 0.242,2.538 0,1.26 -0.129,2.276 -0.388,3.05 -0.259,0.774 -0.646,1.372 -1.161,1.795 -0.515,0.422 -1.166,0.634 -1.952,0.634 -1.035,0 -1.848,-0.371 -2.439,-1.113 -0.709,-0.896 -1.063,-2.35 -1.063,-4.367 z m 1.355,0 c 0,1.763 0.206,2.936 0.619,3.519 0.412,0.584 0.921,0.876 1.527,0.876 0.606,0 1.114,-0.293 1.527,-0.879 0.413,-0.586 0.619,-1.758 0.619,-3.516 0,-1.768 -0.207,-2.942 -0.619,-3.523 -0.412,-0.581 -0.926,-0.871 -1.542,-0.871 -0.605,0 -1.089,0.256 -1.45,0.769 -0.454,0.653 -0.681,1.862 -0.681,3.625 z" />
			</g>
			<g
   id="g272"
   enable-background="new    ">
				<path
   id="path264"
   d="m 238.904,0 h -1.318 v -8.4 c -0.317,0.303 -0.734,0.605 -1.249,0.908 -0.516,0.303 -0.978,0.529 -1.388,0.681 v -1.274 c 0.737,-0.347 1.382,-0.767 1.934,-1.26 0.552,-0.493 0.942,-0.972 1.172,-1.436 h 0.85 V 0 Z" />
				<path
   id="path266"
   d="m 242.478,-2.482 1.267,-0.117 c 0.107,0.596 0.312,1.027 0.615,1.296 0.303,0.269 0.691,0.403 1.165,0.403 0.405,0 0.76,-0.093 1.065,-0.279 0.305,-0.185 0.556,-0.433 0.751,-0.743 0.195,-0.31 0.359,-0.729 0.491,-1.256 0.132,-0.527 0.198,-1.064 0.198,-1.611 0,-0.059 -0.002,-0.146 -0.007,-0.264 -0.264,0.42 -0.624,0.761 -1.081,1.021 -0.457,0.262 -0.951,0.392 -1.483,0.392 -0.889,0 -1.641,-0.322 -2.256,-0.967 -0.615,-0.645 -0.923,-1.494 -0.923,-2.549 0,-1.088 0.321,-1.965 0.963,-2.629 0.642,-0.664 1.446,-0.996 2.413,-0.996 0.698,0 1.337,0.188 1.915,0.564 0.579,0.376 1.019,0.911 1.318,1.607 0.301,0.695 0.451,1.703 0.451,3.021 0,1.372 -0.149,2.464 -0.447,3.277 -0.298,0.812 -0.741,1.432 -1.329,1.856 -0.589,0.425 -1.278,0.638 -2.069,0.638 -0.84,0 -1.526,-0.233 -2.058,-0.7 -0.532,-0.464 -0.852,-1.12 -0.959,-1.964 z m 5.398,-4.74 c 0,-0.757 -0.202,-1.357 -0.604,-1.802 -0.403,-0.444 -0.888,-0.666 -1.454,-0.666 -0.586,0 -1.096,0.239 -1.531,0.717 -0.435,0.479 -0.652,1.1 -0.652,1.861 0,0.684 0.206,1.238 0.619,1.666 0.412,0.427 0.921,0.641 1.527,0.641 0.61,0 1.112,-0.214 1.505,-0.641 0.393,-0.427 0.59,-1.019 0.59,-1.776 z" />
				<path
   id="path268"
   d="m 254.849,0 v -2.57 h -4.658 v -1.209 l 4.9,-6.958 h 1.077 v 6.958 h 1.45 v 1.209 h -1.45 V 0 Z m 0,-3.779 v -4.842 l -3.362,4.842 z" />
				<path
   id="path270"
   d="m 258.965,-5.295 c 0,-1.27 0.131,-2.292 0.393,-3.065 0.26,-0.774 0.648,-1.371 1.164,-1.791 0.515,-0.42 1.163,-0.63 1.944,-0.63 0.576,0 1.081,0.116 1.517,0.348 0.434,0.232 0.793,0.566 1.076,1.004 0.283,0.437 0.506,0.969 0.666,1.597 0.162,0.627 0.242,1.474 0.242,2.538 0,1.26 -0.129,2.276 -0.389,3.05 -0.258,0.774 -0.646,1.372 -1.16,1.795 -0.516,0.422 -1.166,0.634 -1.952,0.634 -1.035,0 -1.849,-0.371 -2.438,-1.113 -0.71,-0.896 -1.063,-2.35 -1.063,-4.367 z m 1.355,0 c 0,1.763 0.205,2.936 0.619,3.519 0.412,0.584 0.921,0.876 1.526,0.876 0.605,0 1.114,-0.293 1.526,-0.879 0.413,-0.586 0.619,-1.758 0.619,-3.516 0,-1.768 -0.206,-2.942 -0.619,-3.523 -0.412,-0.581 -0.926,-0.871 -1.541,-0.871 -0.605,0 -1.089,0.256 -1.45,0.769 -0.453,0.653 -0.68,1.862 -0.68,3.625 z" />
			</g>
			<g
   id="g282"
   enable-background="new    ">
				<path
   id="path274"
   d="m 278.904,0 h -1.318 v -8.4 c -0.318,0.303 -0.734,0.605 -1.249,0.908 -0.516,0.303 -0.978,0.529 -1.388,0.681 v -1.274 c 0.736,-0.347 1.381,-0.767 1.934,-1.26 0.551,-0.493 0.941,-0.972 1.172,-1.436 h 0.85 V 0 Z" />
				<path
   id="path276"
   d="m 282.479,-2.482 1.267,-0.117 c 0.107,0.596 0.312,1.027 0.615,1.296 0.303,0.269 0.69,0.403 1.165,0.403 0.404,0 0.76,-0.093 1.064,-0.279 0.306,-0.185 0.557,-0.433 0.752,-0.743 0.195,-0.31 0.358,-0.729 0.49,-1.256 0.132,-0.527 0.197,-1.064 0.197,-1.611 0,-0.059 -0.002,-0.146 -0.007,-0.264 -0.264,0.42 -0.624,0.761 -1.081,1.021 -0.456,0.262 -0.95,0.392 -1.482,0.392 -0.889,0 -1.641,-0.322 -2.256,-0.967 -0.615,-0.645 -0.923,-1.494 -0.923,-2.549 0,-1.088 0.321,-1.965 0.964,-2.629 0.641,-0.664 1.445,-0.996 2.412,-0.996 0.699,0 1.338,0.188 1.916,0.564 0.578,0.376 1.018,0.911 1.318,1.607 0.301,0.695 0.45,1.703 0.45,3.021 0,1.372 -0.149,2.464 -0.446,3.277 -0.299,0.812 -0.742,1.432 -1.33,1.856 -0.588,0.424 -1.277,0.638 -2.068,0.638 -0.84,0 -1.526,-0.233 -2.059,-0.7 -0.532,-0.464 -0.851,-1.12 -0.958,-1.964 z m 5.397,-4.74 c 0,-0.757 -0.202,-1.357 -0.604,-1.802 -0.402,-0.445 -0.887,-0.666 -1.453,-0.666 -0.586,0 -1.097,0.239 -1.531,0.717 -0.435,0.479 -0.652,1.1 -0.652,1.861 0,0.684 0.207,1.238 0.619,1.666 0.412,0.427 0.922,0.641 1.527,0.641 0.61,0 1.111,-0.214 1.506,-0.641 0.392,-0.427 0.588,-1.019 0.588,-1.776 z" />
				<path
   id="path278"
   d="m 290.623,-2.812 1.384,-0.117 c 0.103,0.674 0.341,1.181 0.714,1.52 0.374,0.34 0.824,0.51 1.352,0.51 0.635,0 1.172,-0.239 1.611,-0.719 0.439,-0.478 0.659,-1.113 0.659,-1.904 0,-0.751 -0.212,-1.345 -0.634,-1.779 -0.422,-0.434 -0.975,-0.652 -1.658,-0.652 -0.426,0 -0.809,0.097 -1.15,0.29 -0.342,0.192 -0.61,0.442 -0.806,0.751 l -1.237,-0.162 1.039,-5.515 h 5.34 v 1.26 h -4.285 l -0.578,2.886 c 0.645,-0.449 1.32,-0.674 2.029,-0.674 0.938,0 1.729,0.325 2.373,0.975 0.644,0.65 0.967,1.484 0.967,2.504 0,0.973 -0.283,1.812 -0.85,2.52 -0.689,0.87 -1.629,1.305 -2.82,1.305 -0.977,0 -1.773,-0.273 -2.392,-0.82 -0.619,-0.547 -0.97,-1.276 -1.058,-2.179 z" />
				<path
   id="path280"
   d="m 298.965,-5.295 c 0,-1.27 0.131,-2.292 0.393,-3.065 0.26,-0.774 0.648,-1.371 1.164,-1.791 0.515,-0.42 1.163,-0.63 1.944,-0.63 0.576,0 1.081,0.116 1.517,0.348 0.434,0.232 0.793,0.566 1.076,1.004 0.283,0.437 0.506,0.969 0.666,1.597 0.162,0.627 0.242,1.474 0.242,2.538 0,1.26 -0.129,2.276 -0.389,3.05 -0.258,0.774 -0.646,1.372 -1.16,1.795 -0.516,0.422 -1.166,0.634 -1.952,0.634 -1.035,0 -1.849,-0.371 -2.438,-1.113 -0.71,-0.896 -1.063,-2.35 -1.063,-4.367 z m 1.355,0 c 0,1.763 0.205,2.936 0.619,3.519 0.412,0.584 0.921,0.876 1.526,0.876 0.605,0 1.114,-0.293 1.526,-0.879 0.413,-0.586 0.619,-1.758 0.619,-3.516 0,-1.768 -0.206,-2.942 -0.619,-3.523 -0.412,-0.581 -0.926,-0.871 -1.541,-0.871 -0.605,0 -1.089,0.256 -1.45,0.769 -0.453,0.653 -0.68,1.862 -0.68,3.625 z" />
			</g>
			<g
   id="g292"
   enable-background="new    ">
				<path
   id="path284"
   d="m 318.904,0 h -1.318 v -8.4 c -0.318,0.303 -0.734,0.605 -1.249,0.908 -0.516,0.303 -0.978,0.529 -1.388,0.681 v -1.274 c 0.736,-0.347 1.381,-0.767 1.934,-1.26 0.551,-0.493 0.941,-0.972 1.172,-1.436 h 0.85 V 0 Z" />
				<path
   id="path286"
   d="m 322.479,-2.482 1.267,-0.117 c 0.107,0.596 0.312,1.027 0.615,1.296 0.303,0.269 0.69,0.403 1.165,0.403 0.404,0 0.76,-0.093 1.064,-0.279 0.306,-0.185 0.557,-0.433 0.752,-0.743 0.195,-0.31 0.358,-0.729 0.49,-1.256 0.132,-0.527 0.197,-1.064 0.197,-1.611 0,-0.059 -0.002,-0.146 -0.007,-0.264 -0.264,0.42 -0.624,0.761 -1.081,1.021 -0.456,0.262 -0.95,0.392 -1.482,0.392 -0.889,0 -1.641,-0.322 -2.256,-0.967 -0.615,-0.645 -0.923,-1.494 -0.923,-2.549 0,-1.088 0.321,-1.965 0.964,-2.629 0.641,-0.664 1.445,-0.996 2.412,-0.996 0.699,0 1.338,0.188 1.916,0.564 0.578,0.376 1.018,0.911 1.318,1.607 0.301,0.695 0.45,1.703 0.45,3.021 0,1.372 -0.149,2.464 -0.446,3.277 -0.299,0.812 -0.742,1.432 -1.33,1.856 -0.588,0.424 -1.277,0.638 -2.068,0.638 -0.84,0 -1.526,-0.233 -2.059,-0.7 -0.532,-0.464 -0.851,-1.12 -0.958,-1.964 z m 5.397,-4.74 c 0,-0.757 -0.202,-1.357 -0.604,-1.802 -0.402,-0.445 -0.887,-0.666 -1.453,-0.666 -0.586,0 -1.097,0.239 -1.531,0.717 -0.435,0.479 -0.652,1.1 -0.652,1.861 0,0.684 0.207,1.238 0.619,1.666 0.412,0.427 0.922,0.641 1.527,0.641 0.61,0 1.111,-0.214 1.506,-0.641 0.392,-0.427 0.588,-1.019 0.588,-1.776 z" />
				<path
   id="path288"
   d="m 337.463,-8.107 -1.311,0.102 c -0.117,-0.517 -0.283,-0.893 -0.498,-1.127 -0.356,-0.376 -0.796,-0.564 -1.318,-0.564 -0.42,0 -0.789,0.117 -1.105,0.352 -0.416,0.303 -0.742,0.745 -0.982,1.326 -0.238,0.581 -0.363,1.408 -0.373,2.482 0.317,-0.483 0.705,-0.842 1.164,-1.076 0.459,-0.234 0.94,-0.352 1.443,-0.352 0.879,0 1.627,0.323 2.245,0.97 0.617,0.647 0.927,1.483 0.927,2.509 0,0.674 -0.146,1.3 -0.437,1.879 -0.29,0.578 -0.689,1.021 -1.197,1.329 -0.508,0.308 -1.084,0.462 -1.729,0.462 -1.099,0 -1.995,-0.404 -2.688,-1.213 -0.693,-0.808 -1.039,-2.14 -1.039,-3.995 0,-2.075 0.383,-3.584 1.149,-4.526 0.669,-0.82 1.569,-1.23 2.702,-1.23 0.846,0 1.537,0.237 2.077,0.711 0.539,0.471 0.862,1.125 0.97,1.961 z m -5.383,4.628 c 0,0.453 0.096,0.889 0.289,1.303 0.193,0.416 0.463,0.731 0.81,0.949 0.347,0.217 0.71,0.326 1.091,0.326 0.557,0 1.035,-0.225 1.436,-0.674 0.401,-0.449 0.602,-1.06 0.602,-1.832 0,-0.741 -0.198,-1.326 -0.594,-1.754 -0.396,-0.427 -0.894,-0.641 -1.494,-0.641 -0.596,0 -1.102,0.214 -1.516,0.641 -0.417,0.429 -0.624,0.989 -0.624,1.682 z" />
				<path
   id="path290"
   d="m 338.965,-5.295 c 0,-1.27 0.131,-2.292 0.393,-3.065 0.26,-0.774 0.648,-1.371 1.164,-1.791 0.515,-0.42 1.163,-0.63 1.944,-0.63 0.576,0 1.081,0.116 1.517,0.348 0.434,0.232 0.793,0.566 1.076,1.004 0.283,0.437 0.506,0.969 0.666,1.597 0.162,0.627 0.242,1.474 0.242,2.538 0,1.26 -0.129,2.276 -0.389,3.05 -0.258,0.774 -0.646,1.372 -1.16,1.795 -0.516,0.422 -1.166,0.634 -1.952,0.634 -1.035,0 -1.849,-0.371 -2.438,-1.113 -0.71,-0.896 -1.063,-2.35 -1.063,-4.367 z m 1.355,0 c 0,1.763 0.205,2.936 0.619,3.519 0.412,0.584 0.921,0.876 1.526,0.876 0.605,0 1.114,-0.293 1.526,-0.879 0.413,-0.586 0.619,-1.758 0.619,-3.516 0,-1.768 -0.206,-2.942 -0.619,-3.523 -0.412,-0.581 -0.926,-0.871 -1.541,-0.871 -0.605,0 -1.089,0.256 -1.45,0.769 -0.453,0.653 -0.68,1.862 -0.68,3.625 z" />
			</g>
			<g
   id="g302"
   enable-background="new    ">
				<path
   id="path294"
   d="m 358.904,0 h -1.318 v -8.4 c -0.318,0.303 -0.734,0.605 -1.249,0.908 -0.516,0.303 -0.978,0.529 -1.388,0.681 v -1.274 c 0.736,-0.347 1.381,-0.767 1.934,-1.26 0.551,-0.493 0.941,-0.972 1.172,-1.436 h 0.85 V 0 Z" />
				<path
   id="path296"
   d="m 362.479,-2.482 1.267,-0.117 c 0.107,0.596 0.312,1.027 0.615,1.296 0.303,0.269 0.69,0.403 1.165,0.403 0.404,0 0.76,-0.093 1.064,-0.279 0.306,-0.185 0.557,-0.433 0.752,-0.743 0.195,-0.31 0.358,-0.729 0.49,-1.256 0.132,-0.527 0.197,-1.064 0.197,-1.611 0,-0.059 -0.002,-0.146 -0.007,-0.264 -0.264,0.42 -0.624,0.761 -1.081,1.021 -0.456,0.262 -0.95,0.392 -1.482,0.392 -0.889,0 -1.641,-0.322 -2.256,-0.967 -0.615,-0.645 -0.923,-1.494 -0.923,-2.549 0,-1.088 0.321,-1.965 0.964,-2.629 0.641,-0.664 1.445,-0.996 2.412,-0.996 0.699,0 1.338,0.188 1.916,0.564 0.578,0.376 1.018,0.911 1.318,1.607 0.301,0.695 0.45,1.703 0.45,3.021 0,1.372 -0.149,2.464 -0.446,3.277 -0.299,0.812 -0.742,1.432 -1.33,1.856 -0.588,0.424 -1.277,0.638 -2.068,0.638 -0.84,0 -1.526,-0.233 -2.059,-0.7 -0.532,-0.464 -0.851,-1.12 -0.958,-1.964 z m 5.397,-4.74 c 0,-0.757 -0.202,-1.357 -0.604,-1.802 -0.402,-0.445 -0.887,-0.666 -1.453,-0.666 -0.586,0 -1.097,0.239 -1.531,0.717 -0.435,0.479 -0.652,1.1 -0.652,1.861 0,0.684 0.207,1.238 0.619,1.666 0.412,0.427 0.922,0.641 1.527,0.641 0.61,0 1.111,-0.214 1.506,-0.641 0.392,-0.427 0.588,-1.019 0.588,-1.776 z" />
				<path
   id="path298"
   d="m 370.711,-9.331 v -1.267 h 6.95 v 1.025 c -0.684,0.728 -1.361,1.694 -2.032,2.9 -0.672,1.206 -1.19,2.445 -1.557,3.721 -0.264,0.898 -0.432,1.882 -0.506,2.951 h -1.354 c 0.015,-0.845 0.181,-1.865 0.498,-3.062 0.317,-1.197 0.772,-2.35 1.366,-3.461 0.593,-1.11 1.225,-2.047 1.893,-2.809 h -5.258 z" />
				<path
   id="path300"
   d="m 378.965,-5.295 c 0,-1.27 0.131,-2.292 0.393,-3.065 0.26,-0.774 0.648,-1.371 1.164,-1.791 0.515,-0.42 1.163,-0.63 1.944,-0.63 0.576,0 1.081,0.116 1.517,0.348 0.434,0.232 0.793,0.566 1.076,1.004 0.283,0.437 0.506,0.969 0.666,1.597 0.162,0.627 0.242,1.474 0.242,2.538 0,1.26 -0.129,2.276 -0.389,3.05 -0.258,0.774 -0.646,1.372 -1.16,1.795 -0.516,0.422 -1.166,0.634 -1.952,0.634 -1.035,0 -1.849,-0.371 -2.438,-1.113 -0.71,-0.896 -1.063,-2.35 -1.063,-4.367 z m 1.355,0 c 0,1.763 0.205,2.936 0.619,3.519 0.412,0.584 0.921,0.876 1.526,0.876 0.605,0 1.114,-0.293 1.526,-0.879 0.413,-0.586 0.619,-1.758 0.619,-3.516 0,-1.768 -0.206,-2.942 -0.619,-3.523 -0.412,-0.581 -0.926,-0.871 -1.541,-0.871 -0.605,0 -1.089,0.256 -1.45,0.769 -0.453,0.653 -0.68,1.862 -0.68,3.625 z" />
			</g>
			<g
   id="g312"
   enable-background="new    ">
				<path
   id="path304"
   d="m 398.904,0 h -1.318 v -8.4 c -0.318,0.303 -0.734,0.605 -1.249,0.908 -0.516,0.303 -0.978,0.529 -1.388,0.681 v -1.274 c 0.736,-0.347 1.381,-0.767 1.934,-1.26 0.551,-0.493 0.941,-0.972 1.172,-1.436 h 0.85 V 0 Z" />
				<path
   id="path306"
   d="m 402.479,-2.482 1.267,-0.117 c 0.107,0.596 0.312,1.027 0.615,1.296 0.303,0.269 0.69,0.403 1.165,0.403 0.404,0 0.76,-0.093 1.064,-0.279 0.306,-0.185 0.557,-0.433 0.752,-0.743 0.195,-0.31 0.358,-0.729 0.49,-1.256 0.132,-0.527 0.197,-1.064 0.197,-1.611 0,-0.059 -0.002,-0.146 -0.007,-0.264 -0.264,0.42 -0.624,0.761 -1.081,1.021 -0.456,0.262 -0.95,0.392 -1.482,0.392 -0.889,0 -1.641,-0.322 -2.256,-0.967 -0.615,-0.645 -0.923,-1.494 -0.923,-2.549 0,-1.088 0.321,-1.965 0.964,-2.629 0.641,-0.664 1.445,-0.996 2.412,-0.996 0.699,0 1.338,0.188 1.916,0.564 0.578,0.376 1.018,0.911 1.318,1.607 0.301,0.695 0.45,1.703 0.45,3.021 0,1.372 -0.149,2.464 -0.446,3.277 -0.299,0.812 -0.742,1.432 -1.33,1.856 -0.588,0.424 -1.277,0.638 -2.068,0.638 -0.84,0 -1.526,-0.233 -2.059,-0.7 -0.532,-0.464 -0.851,-1.12 -0.958,-1.964 z m 5.397,-4.74 c 0,-0.757 -0.202,-1.357 -0.604,-1.802 -0.402,-0.445 -0.887,-0.666 -1.453,-0.666 -0.586,0 -1.097,0.239 -1.531,0.717 -0.435,0.479 -0.652,1.1 -0.652,1.861 0,0.684 0.207,1.238 0.619,1.666 0.412,0.427 0.922,0.641 1.527,0.641 0.61,0 1.111,-0.214 1.506,-0.641 0.392,-0.427 0.588,-1.019 0.588,-1.776 z" />
				<path
   id="path308"
   d="m 412.651,-5.822 c -0.547,-0.2 -0.952,-0.486 -1.216,-0.857 -0.264,-0.371 -0.396,-0.815 -0.396,-1.333 0,-0.781 0.28,-1.438 0.843,-1.97 0.561,-0.532 1.309,-0.799 2.24,-0.799 0.938,0 1.692,0.272 2.264,0.816 0.571,0.545 0.857,1.208 0.857,1.988 0,0.498 -0.131,0.932 -0.393,1.301 -0.262,0.368 -0.658,0.653 -1.189,0.854 0.658,0.215 1.16,0.562 1.505,1.039 0.344,0.479 0.517,1.051 0.517,1.715 0,0.918 -0.325,1.689 -0.975,2.314 -0.65,0.625 -1.504,0.938 -2.563,0.938 -1.059,0 -1.914,-0.314 -2.563,-0.941 -0.649,-0.628 -0.975,-1.41 -0.975,-2.348 0,-0.698 0.178,-1.283 0.531,-1.754 0.354,-0.472 0.859,-0.792 1.513,-0.963 z m -0.688,2.724 c 0,0.376 0.089,0.739 0.268,1.091 0.178,0.352 0.443,0.624 0.795,0.816 0.352,0.193 0.729,0.29 1.135,0.29 0.63,0 1.15,-0.203 1.561,-0.608 0.411,-0.405 0.615,-0.92 0.615,-1.546 0,-0.634 -0.212,-1.159 -0.634,-1.574 -0.423,-0.415 -0.951,-0.623 -1.586,-0.623 -0.62,0 -1.134,0.205 -1.542,0.615 -0.408,0.41 -0.612,0.924 -0.612,1.539 z m 0.425,-4.959 c 0,0.508 0.163,0.923 0.491,1.245 0.326,0.322 0.752,0.483 1.273,0.483 0.508,0 0.924,-0.16 1.249,-0.479 0.325,-0.32 0.487,-0.712 0.487,-1.176 0,-0.483 -0.168,-0.89 -0.502,-1.22 -0.334,-0.329 -0.75,-0.494 -1.248,-0.494 -0.504,0 -0.921,0.161 -1.253,0.483 -0.332,0.322 -0.497,0.709 -0.497,1.158 z" />
				<path
   id="path310"
   d="m 418.965,-5.295 c 0,-1.27 0.131,-2.292 0.393,-3.065 0.26,-0.774 0.648,-1.371 1.164,-1.791 0.515,-0.42 1.163,-0.63 1.944,-0.63 0.576,0 1.081,0.116 1.517,0.348 0.434,0.232 0.793,0.566 1.076,1.004 0.283,0.437 0.506,0.969 0.666,1.597 0.162,0.627 0.242,1.474 0.242,2.538 0,1.26 -0.129,2.276 -0.389,3.05 -0.258,0.774 -0.646,1.372 -1.16,1.795 -0.516,0.422 -1.166,0.634 -1.952,0.634 -1.035,0 -1.849,-0.371 -2.438,-1.113 -0.71,-0.896 -1.063,-2.35 -1.063,-4.367 z m 1.355,0 c 0,1.763 0.205,2.936 0.619,3.519 0.412,0.584 0.921,0.876 1.526,0.876 0.605,0 1.114,-0.293 1.526,-0.879 0.413,-0.586 0.619,-1.758 0.619,-3.516 0,-1.768 -0.206,-2.942 -0.619,-3.523 -0.412,-0.581 -0.926,-0.871 -1.541,-0.871 -0.605,0 -1.089,0.256 -1.45,0.769 -0.453,0.653 -0.68,1.862 -0.68,3.625 z" />
			</g>
			<g
   id="g322"
   enable-background="new    ">
				<path
   id="path314"
   d="m 438.904,0 h -1.318 v -8.4 c -0.318,0.303 -0.734,0.605 -1.249,0.908 -0.516,0.303 -0.978,0.529 -1.388,0.681 v -1.274 c 0.736,-0.347 1.381,-0.767 1.934,-1.26 0.551,-0.493 0.941,-0.972 1.172,-1.436 h 0.85 V 0 Z" />
				<path
   id="path316"
   d="m 442.479,-2.482 1.267,-0.117 c 0.107,0.596 0.312,1.027 0.615,1.296 0.303,0.269 0.69,0.403 1.165,0.403 0.404,0 0.76,-0.093 1.064,-0.279 0.306,-0.185 0.557,-0.433 0.752,-0.743 0.195,-0.31 0.358,-0.729 0.49,-1.256 0.132,-0.527 0.197,-1.064 0.197,-1.611 0,-0.059 -0.002,-0.146 -0.007,-0.264 -0.264,0.42 -0.624,0.761 -1.081,1.021 -0.456,0.262 -0.95,0.392 -1.482,0.392 -0.889,0 -1.641,-0.322 -2.256,-0.967 -0.615,-0.645 -0.923,-1.494 -0.923,-2.549 0,-1.088 0.321,-1.965 0.964,-2.629 0.641,-0.664 1.445,-0.996 2.412,-0.996 0.699,0 1.338,0.188 1.916,0.564 0.578,0.376 1.018,0.911 1.318,1.607 0.301,0.695 0.45,1.703 0.45,3.021 0,1.372 -0.149,2.464 -0.446,3.277 -0.299,0.812 -0.742,1.432 -1.33,1.856 -0.588,0.424 -1.277,0.638 -2.068,0.638 -0.84,0 -1.526,-0.233 -2.059,-0.7 -0.532,-0.464 -0.851,-1.12 -0.958,-1.964 z m 5.397,-4.74 c 0,-0.757 -0.202,-1.357 -0.604,-1.802 -0.402,-0.445 -0.887,-0.666 -1.453,-0.666 -0.586,0 -1.097,0.239 -1.531,0.717 -0.435,0.479 -0.652,1.1 -0.652,1.861 0,0.684 0.207,1.238 0.619,1.666 0.412,0.427 0.922,0.641 1.527,0.641 0.61,0 1.111,-0.214 1.506,-0.641 0.392,-0.427 0.588,-1.019 0.588,-1.776 z" />
				<path
   id="path318"
   d="m 450.82,-2.482 1.268,-0.117 c 0.107,0.596 0.312,1.027 0.615,1.296 0.303,0.269 0.69,0.403 1.164,0.403 0.405,0 0.76,-0.093 1.065,-0.279 0.306,-0.185 0.556,-0.433 0.751,-0.743 0.195,-0.31 0.359,-0.729 0.49,-1.256 0.133,-0.527 0.198,-1.064 0.198,-1.611 0,-0.059 -0.003,-0.146 -0.007,-0.264 -0.264,0.42 -0.625,0.761 -1.081,1.021 -0.456,0.262 -0.95,0.392 -1.483,0.392 -0.889,0 -1.641,-0.322 -2.256,-0.967 -0.615,-0.645 -0.922,-1.494 -0.922,-2.549 0,-1.088 0.32,-1.965 0.963,-2.629 0.642,-0.664 1.446,-0.996 2.413,-0.996 0.698,0 1.337,0.188 1.915,0.564 0.579,0.376 1.019,0.911 1.318,1.607 0.301,0.695 0.451,1.703 0.451,3.021 0,1.372 -0.149,2.464 -0.447,3.277 -0.298,0.812 -0.741,1.432 -1.329,1.856 -0.589,0.425 -1.278,0.638 -2.069,0.638 -0.84,0 -1.525,-0.233 -2.059,-0.7 -0.53,-0.464 -0.85,-1.12 -0.958,-1.964 z m 5.399,-4.74 c 0,-0.757 -0.202,-1.357 -0.604,-1.802 -0.403,-0.444 -0.888,-0.666 -1.454,-0.666 -0.586,0 -1.096,0.239 -1.531,0.717 -0.434,0.479 -0.651,1.1 -0.651,1.861 0,0.684 0.206,1.238 0.619,1.666 0.412,0.427 0.921,0.641 1.526,0.641 0.611,0 1.112,-0.214 1.506,-0.641 0.391,-0.427 0.589,-1.019 0.589,-1.776 z" />
				<path
   id="path320"
   d="m 458.965,-5.295 c 0,-1.27 0.131,-2.292 0.393,-3.065 0.26,-0.774 0.648,-1.371 1.164,-1.791 0.515,-0.42 1.163,-0.63 1.944,-0.63 0.576,0 1.081,0.116 1.517,0.348 0.434,0.232 0.793,0.566 1.076,1.004 0.283,0.437 0.506,0.969 0.666,1.597 0.162,0.627 0.242,1.474 0.242,2.538 0,1.26 -0.129,2.276 -0.389,3.05 -0.258,0.774 -0.646,1.372 -1.16,1.795 -0.516,0.422 -1.166,0.634 -1.952,0.634 -1.035,0 -1.849,-0.371 -2.438,-1.113 -0.71,-0.896 -1.063,-2.35 -1.063,-4.367 z m 1.355,0 c 0,1.763 0.205,2.936 0.619,3.519 0.412,0.584 0.921,0.876 1.526,0.876 0.605,0 1.114,-0.293 1.526,-0.879 0.413,-0.586 0.619,-1.758 0.619,-3.516 0,-1.768 -0.206,-2.942 -0.619,-3.523 -0.412,-0.581 -0.926,-0.871 -1.541,-0.871 -0.605,0 -1.089,0.256 -1.45,0.769 -0.453,0.653 -0.68,1.862 -0.68,3.625 z" />
			</g>
			<g
   id="g332"
   enable-background="new    ">
				<path
   id="path324"
   d="M 480.867,-1.268 V 0 h -7.098 c -0.01,-0.317 0.041,-0.623 0.154,-0.916 0.18,-0.482 0.469,-0.959 0.867,-1.428 0.398,-0.469 0.973,-1.011 1.725,-1.626 1.168,-0.957 1.956,-1.715 2.366,-2.274 0.41,-0.559 0.615,-1.088 0.615,-1.586 0,-0.521 -0.187,-0.963 -0.561,-1.321 -0.373,-0.359 -0.86,-0.538 -1.461,-0.538 -0.635,0 -1.143,0.189 -1.523,0.57 -0.38,0.381 -0.573,0.908 -0.579,1.582 l -1.354,-0.139 c 0.093,-1.011 0.442,-1.781 1.048,-2.311 0.605,-0.53 1.418,-0.795 2.438,-0.795 1.03,0 1.846,0.285 2.446,0.857 0.601,0.57 0.9,1.279 0.9,2.123 0,0.431 -0.088,0.853 -0.264,1.268 -0.176,0.415 -0.467,0.853 -0.875,1.311 -0.408,0.46 -1.085,1.09 -2.032,1.891 -0.791,0.664 -1.299,1.114 -1.523,1.351 -0.225,0.237 -0.41,0.476 -0.557,0.714 h 5.268 z" />
				<path
   id="path326"
   d="m 482.28,-5.295 c 0,-1.27 0.13,-2.292 0.392,-3.065 0.262,-0.774 0.649,-1.371 1.164,-1.791 0.516,-0.42 1.164,-0.63 1.945,-0.63 0.576,0 1.082,0.116 1.516,0.348 0.436,0.232 0.794,0.566 1.077,1.004 0.283,0.437 0.505,0.969 0.667,1.597 0.16,0.627 0.241,1.474 0.241,2.538 0,1.26 -0.13,2.276 -0.388,3.05 -0.26,0.774 -0.646,1.372 -1.162,1.795 -0.515,0.422 -1.165,0.634 -1.951,0.634 -1.035,0 -1.848,-0.371 -2.439,-1.113 -0.707,-0.896 -1.062,-2.35 -1.062,-4.367 z m 1.355,0 c 0,1.763 0.207,2.936 0.619,3.519 0.412,0.584 0.922,0.876 1.527,0.876 0.605,0 1.114,-0.293 1.527,-0.879 0.412,-0.586 0.619,-1.758 0.619,-3.516 0,-1.768 -0.207,-2.942 -0.619,-3.523 -0.413,-0.581 -0.927,-0.871 -1.542,-0.871 -0.605,0 -1.089,0.256 -1.45,0.769 -0.454,0.653 -0.681,1.862 -0.681,3.625 z" />
				<path
   id="path328"
   d="m 490.623,-5.295 c 0,-1.27 0.13,-2.292 0.392,-3.065 0.261,-0.774 0.649,-1.371 1.164,-1.791 0.515,-0.42 1.163,-0.63 1.944,-0.63 0.576,0 1.082,0.116 1.517,0.348 0.435,0.232 0.794,0.566 1.077,1.004 0.283,0.437 0.505,0.969 0.666,1.597 0.161,0.627 0.242,1.474 0.242,2.538 0,1.26 -0.13,2.276 -0.389,3.05 -0.259,0.774 -0.646,1.372 -1.161,1.795 -0.515,0.422 -1.165,0.634 -1.952,0.634 -1.035,0 -1.848,-0.371 -2.438,-1.113 -0.708,-0.896 -1.062,-2.35 -1.062,-4.367 z m 1.355,0 c 0,1.763 0.206,2.936 0.619,3.519 0.412,0.584 0.921,0.876 1.526,0.876 0.605,0 1.115,-0.293 1.527,-0.879 0.412,-0.586 0.619,-1.758 0.619,-3.516 0,-1.768 -0.207,-2.942 -0.619,-3.523 -0.412,-0.581 -0.926,-0.871 -1.541,-0.871 -0.605,0 -1.09,0.256 -1.451,0.769 -0.453,0.653 -0.68,1.862 -0.68,3.625 z" />
				<path
   id="path330"
   d="m 498.965,-5.295 c 0,-1.27 0.131,-2.292 0.393,-3.065 0.26,-0.774 0.648,-1.371 1.164,-1.791 0.515,-0.42 1.163,-0.63 1.944,-0.63 0.576,0 1.081,0.116 1.517,0.348 0.434,0.232 0.793,0.566 1.076,1.004 0.283,0.437 0.506,0.969 0.666,1.597 0.162,0.627 0.242,1.474 0.242,2.538 0,1.26 -0.129,2.276 -0.389,3.05 -0.258,0.774 -0.646,1.372 -1.16,1.795 -0.516,0.422 -1.166,0.634 -1.952,0.634 -1.035,0 -1.849,-0.371 -2.438,-1.113 -0.71,-0.896 -1.063,-2.35 -1.063,-4.367 z m 1.355,0 c 0,1.763 0.205,2.936 0.619,3.519 0.412,0.584 0.921,0.876 1.526,0.876 0.605,0 1.114,-0.293 1.526,-0.879 0.413,-0.586 0.619,-1.758 0.619,-3.516 0,-1.768 -0.206,-2.942 -0.619,-3.523 -0.412,-0.581 -0.926,-0.871 -1.541,-0.871 -0.605,0 -1.089,0.256 -1.45,0.769 -0.453,0.653 -0.68,1.862 -0.68,3.625 z" />
			</g>
			<g
   id="g1228"><path
     id="path334"
     d="m 520.867,-1.134874 v 1.26800001 h -7.098 c -0.01,-0.317 0.041,-0.623 0.154,-0.916 0.18,-0.48200001 0.469,-0.95900001 0.867,-1.42800001 0.398,-0.469 0.973,-1.011 1.725,-1.626 1.168,-0.957 1.956,-1.715 2.366,-2.274 0.41,-0.559 0.615,-1.088 0.615,-1.586 0,-0.521 -0.187,-0.963 -0.561,-1.321 -0.373,-0.359 -0.86,-0.538 -1.461,-0.538 -0.635,0 -1.143,0.189 -1.523,0.57 -0.38,0.381 -0.573,0.908 -0.579,1.582 l -1.354,-0.139 c 0.093,-1.011 0.442,-1.781 1.048,-2.311 0.605,-0.53 1.418,-0.795 2.438,-0.795 1.03,0 1.846,0.285 2.446,0.857 0.601,0.57 0.9,1.279 0.9,2.123 0,0.431 -0.088,0.853 -0.264,1.268 -0.176,0.415 -0.467,0.853 -0.875,1.311 -0.408,0.46 -1.085,1.09 -2.032,1.891 -0.791,0.664 -1.299,1.114 -1.523,1.351 -0.225,0.237 -0.41,0.476 -0.557,0.714 h 5.268 z" /><path
     id="path336"
     d="m 522.28,-5.161874 c 0,-1.27 0.13,-2.292 0.392,-3.065 0.262,-0.774 0.649,-1.371 1.164,-1.791 0.516,-0.42 1.164,-0.63 1.945,-0.63 0.576,0 1.082,0.116 1.516,0.348 0.436,0.232 0.794,0.566 1.077,1.004 0.283,0.437 0.505,0.969 0.667,1.597 0.16,0.627 0.241,1.474 0.241,2.538 0,1.26 -0.13,2.276 -0.388,3.05 -0.26,0.774 -0.646,1.37200001 -1.162,1.79500001 -0.515,0.422 -1.165,0.634 -1.951,0.634 -1.035,0 -1.848,-0.371 -2.439,-1.113 C 522.635,-1.690874 522.28,-3.144874 522.28,-5.161874 Z m 1.355,0 c 0,1.763 0.207,2.936 0.619,3.519 0.412,0.584 0.922,0.87600001 1.527,0.87600001 0.605,0 1.114,-0.29300001 1.527,-0.87900001 0.412,-0.586 0.619,-1.758 0.619,-3.516 0,-1.768 -0.207,-2.942 -0.619,-3.523 -0.413,-0.581 -0.927,-0.871 -1.542,-0.871 -0.605,0 -1.089,0.256 -1.45,0.769 -0.454,0.653 -0.681,1.862 -0.681,3.625 z" /><path
     id="path338"
     d="M 535.588,0.13312601 H 534.27 V -8.266874 c -0.316,0.303 -0.733,0.605 -1.248,0.908 -0.516,0.303 -0.979,0.529 -1.389,0.681 v -1.274 c 0.738,-0.347 1.383,-0.767 1.934,-1.26 0.553,-0.493 0.943,-0.972 1.172,-1.436 h 0.85 V 0.13312601 Z" /><path
     id="path340"
     d="m 538.965,-5.161874 c 0,-1.27 0.131,-2.292 0.393,-3.065 0.26,-0.774 0.648,-1.371 1.164,-1.791 0.515,-0.42 1.163,-0.63 1.944,-0.63 0.576,0 1.081,0.116 1.517,0.348 0.434,0.232 0.793,0.566 1.076,1.004 0.283,0.437 0.506,0.969 0.666,1.597 0.162,0.627 0.242,1.474 0.242,2.538 0,1.26 -0.129,2.276 -0.389,3.05 -0.258,0.774 -0.646,1.37200001 -1.16,1.79500001 -0.516,0.422 -1.166,0.634 -1.952,0.634 -1.035,0 -1.849,-0.371 -2.438,-1.113 -0.71,-0.89600001 -1.063,-2.35000001 -1.063,-4.36700001 z m 1.355,0 c 0,1.763 0.205,2.936 0.619,3.519 0.412,0.584 0.921,0.87600001 1.526,0.87600001 0.605,0 1.114,-0.29300001 1.526,-0.87900001 0.413,-0.586 0.619,-1.758 0.619,-3.516 0,-1.768 -0.206,-2.942 -0.619,-3.523 -0.412,-0.581 -0.926,-0.871 -1.541,-0.871 -0.605,0 -1.089,0.256 -1.45,0.769 -0.453,0.653 -0.68,1.862 -0.68,3.625 z" /></g><g
   style="font-style:normal;font-weight:normal;font-size:15px;line-height:1.25;font-family:sans-serif;fill:#000000;fill-opacity:1;stroke:none"
   id="text1216"
   aria-label="2020"><path
     id="path1230"
     style="font-style:normal;font-variant:normal;font-weight:normal;font-stretch:normal;font-size:15px;font-family:Arial;-inkscape-font-specification:Arial;fill:#000000"
     d="m 560.86633,-1.2678398 v 1.26708979924 h -7.09716 q -0.0147,-0.47607421924 0.1538,-0.91552733924 0.271,-0.72509766 0.86426,-1.42822266 0.60059,-0.703125 1.72852,-1.6259766 1.75049,-1.4355468 2.36572,-2.2705078 0.61523,-0.8422851 0.61523,-1.5893554 0,-0.7836915 -0.56396,-1.3183594 -0.55664,-0.5419922 -1.45752,-0.5419922 -0.95215,0 -1.52344,0.5712891 -0.57129,0.571289 -0.57861,1.5820312 l -1.35498,-0.1391602 q 0.13916,-1.5161132 1.04736,-2.3071289 0.9082,-0.7983398 2.43897,-0.7983398 1.54541,0 2.44629,0.8569336 0.90087,0.8569336 0.90087,2.1240234 0,0.6445313 -0.26367,1.2670899 -0.26367,0.6225586 -0.8789,1.3110351 -0.60791,0.6884766 -2.02881,1.8896485 -1.18653,0.9960937 -1.52344,1.3549804 -0.33691,0.3515625 -0.55664,0.7104493 z" /><path
     id="path1232"
     style="font-style:normal;font-variant:normal;font-weight:normal;font-stretch:normal;font-size:15px;font-family:Arial;-inkscape-font-specification:Arial;fill:#000000"
     d="m 562.28723,-5.2961602 q 0,-1.9042968 0.38819,-3.0615234 0.3955,-1.1645508 1.16455,-1.7944334 0.77636,-0.629883 1.94824,-0.629883 0.86426,0 1.51611,0.351562 0.65186,0.344239 1.07666,1.0034185 0.42481,0.6518554 0.66651,1.5966797 0.24169,0.9375 0.24169,2.5341796 0,1.8896485 -0.38818,3.0541993 -0.38818,1.1572265 -1.16455,1.79443356 -0.76904,0.62988281 -1.94824,0.62988281 -1.55274,0 -2.43897,-1.11328125 -1.06201,-1.34033202 -1.06201,-4.36523442 z m 1.35498,0 q 0,2.644043 0.61524,3.5229493 0.62255,0.87158199 1.53076,0.87158199 0.9082,0 1.52344,-0.87890629 0.62255,-0.8789062 0.62255,-3.515625 0,-2.6513671 -0.62255,-3.5229492 -0.61524,-0.871582 -1.53809,-0.871582 -0.9082,0 -1.4502,0.769043 -0.68115,0.9814453 -0.68115,3.6254882 z" /><path
     id="path1234"
     style="font-style:normal;font-variant:normal;font-weight:normal;font-stretch:normal;font-size:15px;font-family:Arial;-inkscape-font-specification:Arial;fill:#000000"
     d="m 577.56555,-1.2678398 v 1.26708979924 h -7.09717 q -0.0146,-0.47607421924 0.15381,-0.91552733924 0.271,-0.72509766 0.86426,-1.42822266 0.60059,-0.703125 1.72852,-1.6259766 1.75048,-1.4355468 2.36572,-2.2705078 0.61523,-0.8422851 0.61523,-1.5893554 0,-0.7836915 -0.56396,-1.3183594 -0.55664,-0.5419922 -1.45752,-0.5419922 -0.95215,0 -1.52344,0.5712891 -0.57129,0.571289 -0.57861,1.5820312 l -1.35498,-0.1391602 q 0.13916,-1.5161132 1.04736,-2.3071289 0.9082,-0.7983398 2.43897,-0.7983398 1.54541,0 2.44628,0.8569336 0.90088,0.8569336 0.90088,2.1240234 0,0.6445313 -0.26367,1.2670899 -0.26367,0.6225586 -0.8789,1.3110351 -0.60791,0.6884766 -2.02881,1.8896485 -1.18653,0.9960937 -1.52344,1.3549804 -0.33691,0.3515625 -0.55664,0.7104493 z" /><path
     id="path1236"
     style="font-style:normal;font-variant:normal;font-weight:normal;font-stretch:normal;font-size:15px;font-family:Arial;-inkscape-font-specification:Arial;fill:#000000"
     d="m 578.98645,-5.2961602 q 0,-1.9042968 0.38818,-3.0615234 0.39551,-1.1645508 1.16455,-1.7944334 0.77637,-0.629883 1.94825,-0.629883 0.86425,0 1.51611,0.351562 0.65186,0.344239 1.07666,1.0034185 0.4248,0.6518554 0.6665,1.5966797 0.2417,0.9375 0.2417,2.5341796 0,1.8896485 -0.38818,3.0541993 -0.38818,1.1572265 -1.16455,1.79443356 -0.76904,0.62988281 -1.94824,0.62988281 -1.55274,0 -2.43897,-1.11328125 -1.06201,-1.34033202 -1.06201,-4.36523442 z m 1.35498,0 q 0,2.644043 0.61524,3.5229493 0.62255,0.87158199 1.53076,0.87158199 0.9082,0 1.52343,-0.87890629 0.62256,-0.8789062 0.62256,-3.515625 0,-2.6513671 -0.62256,-3.5229492 -0.61523,-0.871582 -1.53808,-0.871582 -0.9082,0 -1.4502,0.769043 -0.68115,0.9814453 -0.68115,3.6254882 z" /></g>
		</g>
	</g>
	<g
   id="g348"
   transform="scale(4,25)">
	</g>
</g>
</svg>
